<svg width="200" height="95" viewBox="0 0 200 95" fill="none" xmlns="http://www.w3.org/2000/svg">
<g clip-path="url(#clip0)">
<path d="M56.4168 51.6071C54.3404 59.6227 45.9867 64.5445 37.6814 62.5289C29.4243 60.5133 24.3541 52.4039 26.4305 44.3414C28.5068 36.3258 36.8605 31.4039 45.1659 33.4195C53.4713 35.4352 58.4931 43.5914 56.4168 51.6071Z" fill="#F7931A"/>
<path d="M48.2567 45.8413C48.5464 43.8257 47.0012 42.7944 44.8766 42.0444L45.5526 39.3257L43.8626 38.9038L43.1865 41.5288C42.752 41.4351 42.2691 41.3413 41.8345 41.2007L42.5105 38.5288L40.8205 38.1069L40.1444 40.8257C39.7581 40.7319 39.4201 40.6851 39.0821 40.5913L36.7643 40.0288L36.3298 41.8101C36.3298 41.8101 37.5852 42.0913 37.5369 42.0913C38.213 42.2788 38.3578 42.7007 38.3095 43.0288L37.5369 46.1226C37.5852 46.1226 37.6335 46.1694 37.7301 46.1694C37.6818 46.1694 37.6335 46.1226 37.5369 46.1226L36.4263 50.4351C36.3298 50.6226 36.1366 50.9507 35.6537 50.8101C35.6537 50.8569 34.3983 50.5288 34.3983 50.5288L33.5774 52.4038L35.7986 52.9194C36.2332 53.0132 36.6195 53.1069 37.0058 53.2007L36.2815 55.9194L37.9715 56.3413L38.6475 53.6226C39.1304 53.7632 39.565 53.8569 39.9996 53.9507L39.3236 56.6226L41.0136 57.0444L41.7379 54.3257C44.6352 54.8413 46.8081 54.6538 47.7255 52.1226C48.4498 50.0601 47.6772 48.8882 46.1803 48.1382C47.1944 48.0444 48.0635 47.3413 48.2567 45.8413ZM44.3937 51.1382C43.8626 53.2007 40.3376 52.0757 39.1787 51.7944L40.0962 48.1851C41.255 48.4663 44.9249 48.9819 44.3937 51.1382ZM44.9249 45.8413C44.442 47.7163 41.4965 46.7788 40.5308 46.5444L41.3516 43.2632C42.3174 43.4507 45.4077 43.8726 44.9249 45.8413Z" fill="white"/>
<path d="M71.2895 42.0913C72.545 42.0913 73.6073 42.3257 74.5248 42.7476C75.4422 43.1694 76.2148 43.7788 76.7942 44.4819C77.3737 45.2319 77.8566 46.0757 78.1463 47.0601C78.436 48.0444 78.5809 49.1226 78.5809 50.2476C78.5809 51.9819 78.2429 53.6694 77.5668 55.2163C76.8908 56.7632 75.9734 58.1226 74.8628 59.2944C73.7039 60.4663 72.3518 61.3569 70.8066 62.0132C69.2615 62.6694 67.5714 62.9976 65.7365 62.9976C65.4951 62.9976 65.1088 62.9976 64.481 62.9976C63.8533 62.9976 63.2256 62.9507 62.453 62.8101C61.6804 62.7163 60.9078 62.5757 60.0386 62.3413C59.1695 62.1538 58.3969 61.8726 57.6243 61.4976L64.3845 33.8882L70.4203 32.9976L68.006 42.7944C68.5372 42.5601 69.0683 42.3726 69.5512 42.2788C70.1306 42.1382 70.6618 42.0913 71.2895 42.0913ZM66.2194 58.3101C67.1368 58.3101 68.006 58.0757 68.7786 57.6538C69.5995 57.2319 70.2755 56.6694 70.8549 55.9194C71.4344 55.2163 71.9172 54.3726 72.2553 53.4819C72.5933 52.5913 72.7864 51.6069 72.7864 50.6226C72.7864 49.4038 72.5933 48.4663 72.1587 47.7632C71.7241 47.0601 70.9515 46.7319 69.8409 46.7319C69.4546 46.7319 69.02 46.7788 68.3923 46.9194C67.8128 47.0601 67.2817 47.2944 66.7988 47.7163L64.2396 58.1226C64.3845 58.1694 64.5293 58.1694 64.6742 58.2163C64.7708 58.2632 64.9156 58.2632 65.0605 58.2632C65.2053 58.2632 65.3502 58.2632 65.5433 58.2632C65.7365 58.2632 65.9296 58.3101 66.2194 58.3101Z" fill="white"/>
<path d="M84.8582 62.4819H79.0637L83.9407 42.5132H89.7835L84.8582 62.4819ZM87.6588 40.0757C86.8379 40.0757 86.1136 39.8413 85.4859 39.3726C84.8099 38.9038 84.5202 38.2007 84.5202 37.2163C84.5202 36.7007 84.6167 36.1851 84.8582 35.7163C85.0996 35.2476 85.3893 34.8257 85.7273 34.4976C86.1136 34.1694 86.4999 33.8882 86.9828 33.7007C87.4657 33.5132 87.9968 33.4194 88.528 33.4194C89.3489 33.4194 90.0732 33.6538 90.7009 34.1226C91.3287 34.5913 91.6667 35.2944 91.6667 36.2788C91.6667 36.7944 91.5701 37.3101 91.3286 37.7788C91.0872 38.2476 90.7975 38.6694 90.4595 38.9976C90.0732 39.3257 89.6869 39.6069 89.204 39.7944C88.7211 39.9819 88.19 40.0757 87.6588 40.0757Z" fill="white"/>
<path d="M94.8539 37.5444L100.938 36.6538L99.4412 42.5601H105.912L104.753 47.2007H98.2823L96.5439 54.1851C96.3991 54.7476 96.3025 55.3101 96.2542 55.8257C96.2059 56.3413 96.3025 56.7632 96.4473 57.1382C96.5922 57.5132 96.8819 57.7944 97.2682 57.9819C97.6545 58.1694 98.234 58.3101 99.0066 58.3101C99.6343 58.3101 100.262 58.2632 100.841 58.1226C101.421 58.0288 102 57.8413 102.628 57.6538L103.063 61.9663C102.29 62.2476 101.421 62.4819 100.503 62.6694C99.586 62.8569 98.5237 62.9507 97.2682 62.9507C95.4816 62.9507 94.0813 62.6694 93.0673 62.1538C92.0532 61.6382 91.3772 60.9351 90.9426 60.0444C90.508 59.1538 90.3632 58.1226 90.4115 56.9507C90.4597 55.7788 90.6529 54.5601 90.9426 53.2476L94.8539 37.5444Z" fill="white"/>
<path d="M105.67 54.5132C105.67 52.7788 105.96 51.1851 106.539 49.6382C107.119 48.1382 107.939 46.7788 109.002 45.6538C110.064 44.5288 111.368 43.6382 112.913 42.9819C114.41 42.3257 116.148 41.9976 118.031 41.9976C119.19 41.9976 120.253 42.0913 121.17 42.3257C122.088 42.5601 122.957 42.8413 123.681 43.1694L121.701 47.5757C121.17 47.3882 120.639 47.2007 120.059 47.0132C119.48 46.8257 118.804 46.7788 117.983 46.7788C116.052 46.7788 114.506 47.4351 113.396 48.7007C112.285 50.0132 111.706 51.7476 111.706 53.9038C111.706 55.2163 111.996 56.2475 112.575 57.0444C113.154 57.8413 114.217 58.2163 115.762 58.2163C116.535 58.2163 117.259 58.1225 117.935 57.9819C118.659 57.8413 119.287 57.6538 119.818 57.4194L120.253 61.9194C119.528 62.2007 118.707 62.435 117.838 62.6694C116.969 62.8569 115.907 62.9976 114.651 62.9976C113.058 62.9976 111.658 62.7632 110.547 62.2944C109.436 61.8257 108.519 61.2163 107.795 60.4663C107.07 59.6694 106.539 58.7788 106.201 57.7475C105.815 56.7163 105.67 55.6382 105.67 54.5132Z" fill="white"/>
<path d="M131.359 62.9976C129.958 62.9976 128.8 62.8101 127.737 62.3882C126.723 61.9663 125.902 61.4038 125.226 60.7007C124.55 59.9507 124.067 59.1069 123.729 58.1226C123.391 57.1382 123.247 56.0132 123.247 54.7944C123.247 53.2944 123.488 51.7475 124.019 50.2475C124.502 48.7475 125.275 47.3413 126.289 46.1694C127.254 44.9507 128.51 43.9663 129.91 43.1694C131.359 42.4194 133.001 41.9976 134.835 41.9976C136.188 41.9976 137.395 42.1851 138.409 42.6069C139.423 43.0288 140.292 43.5913 140.968 44.2944C141.644 45.0444 142.127 45.8882 142.465 46.8726C142.803 47.8569 142.996 48.9819 142.996 50.2007C142.996 51.7007 142.755 53.2475 142.272 54.7476C141.789 56.2476 141.065 57.6069 140.099 58.8257C139.133 60.0444 137.926 61.0288 136.477 61.8257C134.932 62.6226 133.29 62.9976 131.359 62.9976ZM134.256 46.7319C133.387 46.7319 132.663 46.9663 131.987 47.435C131.311 47.9038 130.779 48.5132 130.345 49.2632C129.91 50.0132 129.572 50.81 129.331 51.6538C129.089 52.5444 128.993 53.3413 128.993 54.1382C128.993 55.4038 129.186 56.3882 129.62 57.0913C130.055 57.7944 130.779 58.1694 131.89 58.1694C132.759 58.1694 133.483 57.9351 134.159 57.4663C134.787 56.9976 135.367 56.3882 135.801 55.6382C136.236 54.8882 136.574 54.0913 136.815 53.2476C137.057 52.3569 137.153 51.5601 137.153 50.7632C137.153 49.4975 136.96 48.5132 136.526 47.8101C136.091 47.1069 135.367 46.7319 134.256 46.7319Z" fill="white"/>
<path d="M149.225 62.4819H143.431L148.308 42.5132H154.15L149.225 62.4819ZM152.074 40.0757C151.253 40.0757 150.529 39.8413 149.901 39.3726C149.273 38.9038 148.935 38.2007 148.935 37.2163C148.935 36.7007 149.032 36.1851 149.273 35.7163C149.515 35.2476 149.805 34.8257 150.143 34.4976C150.529 34.1694 150.915 33.8882 151.398 33.7007C151.881 33.5132 152.412 33.4194 152.943 33.4194C153.764 33.4194 154.488 33.6538 155.116 34.1226C155.744 34.5913 156.082 35.2944 156.082 36.2788C156.082 36.7944 155.985 37.3101 155.744 37.7788C155.502 38.2476 155.213 38.6694 154.875 38.9976C154.488 39.3257 154.102 39.6069 153.619 39.7944C153.136 39.9819 152.605 40.0757 152.074 40.0757Z" fill="white"/>
<path d="M158.351 43.4038C158.786 43.2632 159.269 43.1226 159.8 42.9819C160.331 42.8413 160.91 42.6538 161.586 42.5132C162.263 42.3726 162.987 42.2788 163.808 42.1851C164.629 42.0913 165.546 42.0444 166.608 42.0444C169.65 42.0444 171.775 42.8882 172.934 44.6226C174.093 46.3569 174.286 48.7007 173.562 51.7007L170.906 62.4819H165.063L167.622 51.9351C167.767 51.2788 167.912 50.6226 168.009 50.0132C168.105 49.4038 168.105 48.8413 168.009 48.3726C167.912 47.9038 167.671 47.5288 167.284 47.2476C166.898 46.9663 166.319 46.8257 165.546 46.8257C164.773 46.8257 164.001 46.9194 163.228 47.0601L159.414 62.5288H153.571L158.351 43.4038Z" fill="white"/>
</g>
<defs>
<clipPath id="clip0">
<rect width="148" height="30" fill="white" transform="translate(26 33)"/>
</clipPath>
</defs>
</svg>
