<svg width="200" height="95" viewBox="0 0 200 95" fill="none" xmlns="http://www.w3.org/2000/svg">
<path d="M35.693 45.7043C34.2011 47.0508 32.2633 47.6382 29.1954 47.6382H27.9212V31.5495H29.1954C32.2633 31.5495 34.1249 32.0981 35.693 33.5171C37.335 34.9786 38.3228 37.2432 38.3228 39.574C38.3228 41.9095 37.335 44.2434 35.693 45.7043ZM30.1465 27.4272H23.177V51.7571H30.1098C33.7963 51.7571 36.4582 50.8877 38.7949 48.9484C41.5715 46.6515 43.2135 43.1897 43.2135 39.609C43.2135 32.429 37.8465 27.4272 30.1465 27.4272Z" fill="white"/>
<path d="M45.3983 51.7571H50.1463V27.4272H45.3983V51.7571Z" fill="white"/>
<path d="M61.7559 36.7638C58.9068 35.71 58.0701 35.0149 58.0701 33.7004C58.0701 32.1681 59.5606 31.0037 61.6071 31.0037C63.0298 31.0037 64.1989 31.5877 65.436 32.9741L67.9201 29.7226C65.8787 27.9377 63.4361 27.0251 60.7674 27.0251C56.4608 27.0251 53.1757 30.0146 53.1757 33.9966C53.1757 37.3485 54.7054 39.0646 59.1646 40.6688C61.0231 41.324 61.9691 41.7606 62.4465 42.0544C63.3952 42.6736 63.8703 43.55 63.8703 44.5718C63.8703 46.5432 62.3022 48.0037 60.1837 48.0037C57.9192 48.0037 56.0951 46.8717 55.002 44.7587L51.9345 47.7107C54.1221 50.9203 56.7492 52.3427 60.3618 52.3427C65.2961 52.3427 68.7572 49.0636 68.7572 44.3536C68.7572 40.4881 67.157 38.7382 61.7559 36.7638Z" fill="white"/>
<path d="M70.2544 39.609C70.2544 46.7604 75.8724 52.3057 83.1024 52.3057C85.1462 52.3057 86.8965 51.904 89.0551 50.8877V45.3013C87.1571 47.2002 85.4759 47.966 83.323 47.966C78.5414 47.966 75.1474 44.5008 75.1474 39.5739C75.1474 34.9027 78.6487 31.2179 83.1024 31.2179C85.3669 31.2179 87.0811 32.0256 89.0551 33.9554V28.3717C86.9711 27.3149 85.2573 26.8772 83.2144 26.8772C76.0212 26.8772 70.2544 32.5347 70.2544 39.609Z" fill="white"/>
<path d="M126.702 43.7696L120.211 27.4271H115.024L125.353 52.3812H127.908L138.424 27.4271H133.277L126.702 43.7696Z" fill="white"/>
<path d="M140.571 51.7571H154.036V47.6382H145.315V41.0709H153.714V36.9497H145.315V31.5495H154.036V27.4272H140.571V51.7571Z" fill="white"/>
<path d="M163.309 38.6284H161.922V31.2595H163.384C166.341 31.2595 167.949 32.4977 167.949 34.8656C167.949 37.3116 166.341 38.6284 163.309 38.6284ZM172.835 34.61C172.835 30.0552 169.696 27.4272 164.22 27.4272H157.18V51.7571H161.922V41.9834H162.541L169.113 51.7571H174.952L167.29 41.5072C170.865 40.7805 172.835 38.3354 172.835 34.61Z" fill="white"/>
<path d="M174.966 28.6337H174.879V28.0748H174.971C175.224 28.0748 175.354 28.1657 175.354 28.3498C175.354 28.5391 175.222 28.6337 174.966 28.6337ZM175.865 28.342C175.865 27.9156 175.571 27.6824 175.055 27.6824H174.368V29.8209H174.879V28.9915L175.478 29.8209H176.101L175.398 28.939C175.699 28.858 175.865 28.6389 175.865 28.342Z" fill="white"/>
<path d="M175.152 30.2784C174.334 30.2784 173.665 29.5983 173.665 28.7498C173.665 27.8983 174.325 27.2185 175.152 27.2185C175.965 27.2185 176.628 27.9139 176.628 28.7498C176.628 29.5912 175.965 30.2784 175.152 30.2784ZM175.159 26.8829C174.12 26.8829 173.295 27.7117 173.295 28.7471C173.295 29.7818 174.129 30.6116 175.159 30.6116C176.171 30.6116 177 29.773 177 28.7471C177 27.7264 176.171 26.8829 175.159 26.8829Z" fill="white"/>
<path d="M31.6895 63.6017V63.826C31.6895 64.8028 31.5574 65.4625 31.2271 66.0568C30.514 67.3505 29.0614 68.182 27.5164 68.182C25.0469 68.182 23 66.1228 23 63.6412C23 61.1201 25.0602 59.0741 27.5957 59.0741C28.573 59.0741 29.5367 59.391 30.2896 59.9717C30.6329 60.2225 30.8838 60.4734 31.3064 60.988L30.5801 61.648C29.7087 60.4996 28.8104 59.9982 27.609 59.9982C25.6016 59.9982 23.9906 61.6347 23.9906 63.6544C23.9906 65.6081 25.6149 67.2579 27.5297 67.2579C28.6255 67.2579 29.7349 66.6507 30.2763 65.7528C30.5008 65.3968 30.5934 65.0537 30.6329 64.5125H28.0183V63.6017H31.6895Z" fill="white"/>
<path d="M38.1165 67.1124H40.5332V68.0232H37.1263V59.2193H38.1165V67.1124Z" fill="white"/>
<path d="M45.5733 63.5751C45.5733 64.6575 45.9564 65.5551 46.6957 66.2549C47.3693 66.8883 48.2673 67.2579 49.139 67.2579C51.146 67.2579 52.7571 65.6476 52.7571 63.6279C52.7571 61.6218 51.1593 59.9982 49.1652 59.9982C47.1976 59.9982 45.5733 61.6218 45.5733 63.5751ZM53.7477 63.6279C53.7477 66.1493 51.6742 68.182 49.1257 68.182C47.8712 68.182 46.5901 67.6013 45.7184 66.6374C44.9791 65.8059 44.5827 64.7634 44.5827 63.5751C44.5827 61.1466 46.6957 59.0741 49.1785 59.0741C51.6742 59.0741 53.7477 61.1333 53.7477 63.6279Z" fill="white"/>
<path d="M61.0003 67.1124C61.806 67.1124 62.1759 67.0202 62.5457 66.7298C62.9019 66.4395 63.1133 65.9906 63.1133 65.5154C63.1133 64.9742 62.8228 64.4463 62.3737 64.2087C62.0305 64.0106 61.5816 63.9313 60.8685 63.9313H59.878V67.1124H61.0003ZM60.6176 63.0998C61.2646 63.0998 61.5684 63.0205 61.8588 62.7567C62.1625 62.4926 62.3342 62.0835 62.3342 61.6216C62.3342 61.1465 62.1625 60.7237 61.8721 60.4599C61.5949 60.2224 61.2513 60.1298 60.6438 60.1298H59.878V63.0998H60.6176ZM58.8878 59.2193H60.4855C61.4096 59.2193 62.0171 59.3908 62.4796 59.7738C62.9945 60.1825 63.2983 60.8823 63.2983 61.6083C63.2983 62.3605 63.0339 62.8755 62.4268 63.3112C63.4698 63.6148 64.0906 64.4463 64.0906 65.5416C64.0906 66.2942 63.7736 66.9674 63.2059 67.4293C62.6641 67.865 62.0832 68.0232 61.0797 68.0232H58.8878V59.2193Z" fill="white"/>
<path d="M72.5392 61.0937L71.0338 64.6179H74.0049L72.5392 61.0937ZM70.6245 65.5287L69.5679 68.0232H68.4983L72.5526 58.7969L76.5139 68.0232H75.4313L74.388 65.5287H70.6245Z" fill="white"/>
<path d="M83.3759 67.1124H85.7926V68.0232H82.3857V59.2193H83.3759V67.1124Z" fill="white"/>
<path d="M99.7338 58.8496L106.587 66.0434V59.2194H107.578V68.4195L100.724 61.2387V68.0233H99.7338V58.8496Z" fill="white"/>
<path d="M113.691 60.1298V62.7567H117.164V63.6676H113.691V67.1124H117.257V68.0232H112.7V59.2193H117.257V60.1298H113.691Z" fill="white"/>
<path d="M125.079 68.0232H124.088V60.1298H121.962V59.2193H127.218V60.1298H125.079V68.0232Z" fill="white"/>
<path d="M134.611 65.8192L137.371 58.7705L139.972 65.8192L142.56 59.2195H143.63L139.946 68.4724L137.344 61.437L134.571 68.4724L131.19 59.2195H132.26L134.611 65.8192Z" fill="white"/>
<path d="M147.191 63.5751C147.191 64.6575 147.575 65.5551 148.314 66.2549C148.988 66.8883 149.886 67.2579 150.757 67.2579C152.764 67.2579 154.375 65.6476 154.375 63.6279C154.375 61.6218 152.777 59.9982 150.784 59.9982C148.815 59.9982 147.191 61.6218 147.191 63.5751ZM155.366 63.6279C155.366 66.1493 153.293 68.182 150.744 68.182C149.489 68.182 148.209 67.6013 147.337 66.6374C146.598 65.8059 146.201 64.7634 146.201 63.5751C146.201 61.1466 148.314 59.0741 150.797 59.0741C153.293 59.0741 155.366 61.1333 155.366 63.6279Z" fill="white"/>
<path d="M160.996 63.2979C162.237 63.2979 162.937 62.7169 162.937 61.6876C162.937 61.1465 162.699 60.671 162.29 60.4201C161.973 60.2224 161.576 60.1298 160.956 60.1298H160.375V63.2979H160.996ZM164.482 68.0232H163.28L160.626 64.1689H160.375V68.0232H159.385V59.2193H160.811C161.814 59.2193 162.422 59.351 162.923 59.6945C163.531 60.1032 163.901 60.8561 163.901 61.6876C163.901 63.0205 163.03 63.9712 161.683 64.0896L164.482 68.0232Z" fill="white"/>
<path d="M173.956 59.2193H175.277L171.144 63.3241L175.41 68.0232H174.063L170.457 63.9844L170.206 64.2349V68.0232H169.216V59.2193H170.206V62.9943L173.956 59.2193Z" fill="white"/>
<g filter="url(#filter0_i)">
<path d="M116.756 39.939C116.756 47.2237 110.851 53.1291 103.566 53.1291C96.2813 53.1291 90.376 47.2237 90.376 39.939C90.376 32.6544 96.2813 26.749 103.566 26.749C110.851 26.749 116.756 32.6544 116.756 39.939Z" fill="url(#paint0_linear)"/>
</g>
<defs>
<filter id="filter0_i" x="90.376" y="26.749" width="27.806" height="28.1625" filterUnits="userSpaceOnUse" color-interpolation-filters="sRGB">
<feFlood flood-opacity="0" result="BackgroundImageFix"/>
<feBlend mode="normal" in="SourceGraphic" in2="BackgroundImageFix" result="shape"/>
<feColorMatrix in="SourceAlpha" type="matrix" values="0 0 0 0 0 0 0 0 0 0 0 0 0 0 0 0 0 0 127 0" result="hardAlpha"/>
<feOffset dx="1.42595" dy="1.78243"/>
<feGaussianBlur stdDeviation="1.42595"/>
<feComposite in2="hardAlpha" operator="arithmetic" k2="-1" k3="1"/>
<feColorMatrix type="matrix" values="0 0 0 0 0.521569 0 0 0 0 0.14902 0 0 0 0 0.105882 0 0 0 0.87 0"/>
<feBlend mode="normal" in2="shape" result="effect1_innerShadow"/>
</filter>
<linearGradient id="paint0_linear" x1="98.5831" y1="32.9044" x2="110.161" y2="50.9901" gradientUnits="userSpaceOnUse">
<stop stop-color="#E1481E"/>
<stop offset="0.799436" stop-color="#F59314"/>
<stop offset="1" stop-color="#FFAD43"/>
</linearGradient>
</defs>
</svg>
