<svg width="200" height="95" viewBox="0 0 200 95" fill="none" xmlns="http://www.w3.org/2000/svg">
<g clip-path="url(#clip0)">
<path d="M51.4999 31C37.3846 31 26 37.2989 26 45.1032C26 48.431 28.0585 51.4418 31.5453 53.898C29.8229 51.8776 28.8567 49.6591 28.8567 47.2821C28.8567 39.2005 40.0312 32.6242 53.7684 32.6242C62.6324 32.6242 70.4462 35.3577 74.8572 39.4778C70.9503 34.4862 61.9183 31 51.4999 31Z" fill="#8CC23C"/>
<path d="M49.2736 49.1043C50.3238 49.1043 51.164 48.9062 51.7942 48.4704C52.5083 48.0346 52.8864 47.3612 52.8864 46.4896C52.8864 44.8654 52.3403 43.3996 51.206 42.0526C50.0718 40.7057 48.6434 39.6757 46.921 38.9626C45.7028 38.4872 44.3584 38.2495 42.8461 38.2495C39.8214 38.2495 37.3428 39.1607 35.4104 41.0226C33.4779 42.8846 32.5117 45.1031 32.5117 47.6781C32.5117 50.2927 33.52 52.5112 35.5364 54.2939C37.5529 56.0766 40.0735 56.9878 43.1402 56.9878C44.7785 56.9878 46.3329 56.7897 47.8032 56.354C49.5676 55.8389 50.8699 55.1259 51.6681 54.1751C52.1302 53.6601 52.3403 53.1451 52.3403 52.6301C52.3403 51.2831 51.5421 50.57 49.9037 50.57C49.5676 50.57 48.6434 50.8473 47.1731 51.4416C45.7448 51.9962 44.4845 52.2735 43.4762 52.2735C42.2159 52.2735 41.1657 51.9962 40.3255 51.4416C39.4853 50.887 38.9812 50.1343 38.8552 49.1043H49.2736ZM40.1575 43.3996C40.8716 42.8449 41.7959 42.528 42.8881 42.528C43.9383 42.528 44.8626 42.8053 45.6187 43.3996C46.3749 43.9938 46.795 44.7465 46.837 45.6577H38.7712C38.9392 44.7465 39.4013 43.9938 40.1575 43.3996Z" fill="white"/>
<path d="M56.2888 54.2547C58.1792 56.0374 60.6578 56.9486 63.7245 56.9486C65.5729 56.9486 67.1272 56.6713 68.3455 56.1563C70.0679 55.4036 70.9081 54.532 70.9081 53.4624C70.9081 52.8286 70.6981 52.3136 70.236 51.8382C69.7739 51.4024 69.2277 51.1647 68.5136 51.1647C68.0515 51.1647 67.4213 51.2835 66.7071 51.5609C65.993 51.8382 65.1948 51.957 64.3126 51.957C62.8423 51.957 61.708 51.5212 60.9098 50.6497C60.1956 49.8574 59.8596 48.8274 59.8596 47.52C59.8596 46.292 60.1956 45.2619 60.8678 44.43C61.624 43.5188 62.7162 43.0831 64.1025 43.0831C64.9427 43.0831 65.7829 43.2019 66.5391 43.4792C67.2953 43.7565 67.9254 43.8754 68.4295 43.8754C69.1437 43.8754 69.7739 43.6773 70.236 43.2415C70.6981 42.8058 70.9501 42.2908 70.9501 41.6569C70.9501 40.4288 70.1099 39.5176 68.4295 38.9234C67.1693 38.4876 65.7409 38.2896 64.0605 38.2896C60.8678 38.2896 58.3052 39.1611 56.4148 40.9042C54.4823 42.6473 53.5161 44.9054 53.5161 47.6389C53.5581 50.3328 54.4403 52.5116 56.2888 54.2547Z" fill="white"/>
<path d="M73.9751 54.2939C75.9496 56.1559 78.4702 57.067 81.5369 57.067C84.6036 57.067 87.1242 56.1559 89.0986 54.3335C90.989 52.5508 91.9133 50.3323 91.9133 47.6781C91.9133 44.9842 90.947 42.7261 89.0566 40.9434C87.1662 39.1607 84.6456 38.2495 81.5369 38.2495C78.4702 38.2495 75.9916 39.1607 74.0592 40.983C72.1267 42.8053 71.1605 45.0238 71.1605 47.7177C71.1185 50.2927 72.0847 52.5112 73.9751 54.2939ZM78.3861 44.588C79.1003 43.6373 80.1506 43.2015 81.4949 43.2015C82.7972 43.2015 83.8474 43.6769 84.5616 44.6277C85.2337 45.4596 85.5278 46.45 85.5278 47.6385C85.5278 48.8666 85.1917 49.857 84.5616 50.6493C83.8474 51.6 82.7972 52.0754 81.4529 52.0754C80.1506 52.0754 79.1003 51.6 78.3861 50.6493C77.714 49.8173 77.4199 48.8269 77.4199 47.6385C77.4619 46.4104 77.756 45.42 78.3861 44.588Z" fill="white"/>
<path d="M100.483 37.7743H103.214C106.112 37.7743 107.541 38.8043 107.541 40.8643C107.541 42.964 106.112 44.0336 103.214 44.0336H100.483V37.7743ZM100.483 52.9472V48.9064H104.726C107.709 48.9064 110.061 48.1933 111.784 46.8067C113.506 45.3806 114.346 43.3998 114.346 40.8643C114.346 38.2893 113.38 36.2689 111.49 34.8427C109.683 33.4958 107.247 32.7827 104.222 32.7827H98.5506C96.9123 32.7827 95.778 33.06 95.1479 33.6146C94.5177 34.1693 94.1816 35.1597 94.1816 36.5858V52.9472C94.1816 55.5222 95.2319 56.7899 97.3324 56.7899C99.4328 56.7899 100.483 55.5222 100.483 52.9472Z" fill="#8CC23C"/>
<path d="M122.034 44.7073C122.748 43.8357 123.757 43.3603 125.017 43.3603C126.319 43.3603 127.285 43.7961 128 44.7073C128.588 45.4996 128.924 46.4503 128.924 47.5992C128.924 48.7481 128.63 49.7385 128 50.5308C127.285 51.4419 126.319 51.8777 125.017 51.8777C123.715 51.8777 122.706 51.4419 121.992 50.5308C121.362 49.7385 121.068 48.7481 121.068 47.5992C121.068 46.4503 121.404 45.4996 122.034 44.7073ZM132.117 56.7901C134.133 56.7901 135.141 55.5224 135.141 52.9473V42.3699C135.141 39.8345 134.133 38.5668 132.117 38.5668C130.856 38.5668 129.89 39.1214 129.176 40.2307C127.916 38.963 126.277 38.3291 124.261 38.3291C121.446 38.3291 119.136 39.3195 117.329 41.2607C115.607 43.083 114.767 45.2223 114.767 47.6784C114.767 50.095 115.607 52.2343 117.245 54.017C119.052 55.9582 121.32 56.9485 124.093 56.9485C126.277 56.9485 128 56.2751 129.26 54.9678C129.764 56.1562 130.772 56.7901 132.117 56.7901Z" fill="#8CC23C"/>
<path d="M149.382 40.6264L145.644 49.025L142.157 41.1018C141.779 40.2303 141.443 39.636 141.149 39.3191C140.644 38.8041 139.93 38.5664 139.048 38.5664C138.208 38.5664 137.494 38.8041 136.906 39.3191C136.317 39.8341 136.065 40.4284 136.065 41.1811C136.065 41.6961 136.191 42.1714 136.402 42.6468L142.577 55.0466L140.056 59.7609C139.72 60.4344 139.552 61.0286 139.552 61.5436C139.552 62.3359 139.846 62.9302 140.392 63.4055C140.939 63.8413 141.695 64.079 142.577 64.079C143.669 64.079 144.551 63.3659 145.266 61.9794L154.634 42.9638C154.97 42.2903 155.138 41.6961 155.138 41.1414C155.138 39.4776 154.13 38.6456 152.113 38.6456C150.895 38.5268 150.013 39.2399 149.382 40.6264Z" fill="#8CC23C"/>
<path d="M170.177 51.6398H164.128L172.277 42.647C173.118 41.7358 173.538 40.9831 173.538 40.3493C173.538 39.6362 173.202 39.2004 172.571 39.042C171.941 38.8439 170.975 38.7646 169.631 38.7646H159.801C157.196 38.7646 155.894 39.557 155.894 41.1416C155.894 42.7658 157.196 43.5582 159.759 43.5582H165.052L156.608 52.9075C156.02 53.581 155.684 54.2544 155.684 54.9279C155.684 55.9975 156.776 56.5522 158.918 56.5522H170.093C172.655 56.5522 173.958 55.7598 173.958 54.1356C174 52.4717 172.698 51.6398 170.177 51.6398Z" fill="#8CC23C"/>
</g>
<defs>
<clipPath id="clip0">
<rect width="148" height="33" fill="white" transform="translate(26 31)"/>
</clipPath>
</defs>
</svg>
