<svg width="200" height="95" viewBox="0 0 200 95" fill="none" xmlns="http://www.w3.org/2000/svg">
<path d="M65.8179 56.5539C68.1329 59.0554 70.9844 60.306 74.3722 60.3058C75.811 60.3058 77.4394 59.9371 79.2577 59.1999L79.5498 53.7347L63.5655 53.1383C64.1321 54.3883 64.8923 55.541 65.8179 56.5539ZM38.4313 52.1978L36.6227 59.7724H45.0787L45.746 55.9025H51.2592L51.8673 59.7724H60.3235L58.8905 52.9625L38.4313 52.1978ZM46.8151 28.5531L41.3444 51.4648L61.8038 52.2305L56.8211 28.5531H46.8151ZM49.7581 48.6341L50.582 43.8559L51.1508 40.1633C51.1637 40.0974 51.1904 39.9064 51.2295 39.5906C51.2687 39.2748 51.334 38.709 51.4258 37.8923C51.4778 37.4843 51.5268 37.1093 51.5728 36.7672C51.6188 36.425 51.6548 36.1156 51.6808 35.8389L51.9358 38.7218C52.0012 39.3137 52.0536 39.804 52.0929 40.1927C52.1322 40.5813 52.1648 40.8874 52.1908 41.1109C52.4395 43.1121 52.5769 44.2574 52.6029 44.547C52.615 44.7265 52.6412 44.9048 52.6814 45.0802L53.2112 48.6347H49.7581V48.6341ZM76.1865 51.1027C75.5284 50.7308 74.9723 50.2016 74.5679 49.5625C74.0931 48.8034 73.7513 47.9688 73.5572 47.0946C73.3094 46.0065 73.191 44.893 73.2044 43.7771C73.2044 41.2234 73.6752 39.2226 74.6169 37.7748C75.5586 36.3399 76.8666 35.6225 78.5408 35.6226C79.823 35.6226 81.0721 36.2346 82.2881 37.4585V28.7502C80.9951 28.265 79.627 28.0111 78.2462 28C74.178 28 70.9278 29.448 68.4956 32.3439C66.0624 35.2532 64.846 39.11 64.8464 43.9145C64.8464 47.2343 65.3963 50.0585 66.4792 52.4044L82.4627 53.0019L82.6412 49.6605C81.2153 50.9767 79.7962 51.6349 78.3841 51.6351C77.618 51.6498 76.8611 51.4664 76.1865 51.1027ZM111.935 42.5632C112.358 43.3088 112.872 43.9989 113.465 44.6174C114.167 45.3475 114.928 46.0179 115.741 46.6216L117.075 47.6673C118.043 48.4438 118.527 49.2402 118.527 50.0566C118.531 50.3272 118.473 50.5952 118.357 50.8399C118.242 51.0846 118.072 51.2995 117.86 51.468C117.371 51.8585 116.758 52.0586 116.133 52.0312C114.263 52.0312 112.523 50.9254 110.914 48.7137V54.066L125.459 54.6096C126.298 53.0565 126.727 51.2669 126.727 49.2271C126.727 47.4634 126.348 45.9233 125.589 44.6068C124.844 43.2906 123.608 42.007 121.881 40.7561L120.586 39.7891C119.474 38.9861 118.918 38.1764 118.919 37.3599C118.919 37.1124 118.976 36.8682 119.084 36.6458C119.193 36.4234 119.351 36.2288 119.546 36.0766C119.973 35.7004 120.528 35.5027 121.096 35.524C121.92 35.524 122.757 35.8234 123.608 36.4223C124.518 37.0863 125.291 37.9214 125.884 38.8809V29.5604C123.909 28.5213 121.947 28.0014 119.998 28.0009C117.813 28.0009 115.949 28.6591 114.406 29.9756C113.842 30.4382 113.341 30.9727 112.915 31.5654C111.567 33.4466 110.827 35.6967 110.797 38.0118C110.793 38.8097 110.885 39.6051 111.072 40.3809C111.26 41.1438 111.55 41.8777 111.935 42.5625V42.5632ZM14 59.7724H22.1816V51.5907L14 51.2848V59.7724ZM28.9984 51.0036L37.1801 51.3095V28.5531H28.9997V39.3338H25.0951V28.5531H16.9137V50.5518L25.0951 50.8575V46.7775H28.9997V51.0036H28.9984ZM26.0853 59.7724H34.2683V52.0424L26.0866 51.7365V59.7724H26.0853ZM99.3185 28.5531L94.4924 41.6241L94.7078 28.5531H86.5261V53.1536L94.6222 53.4563L94.4916 44.981L97.8139 53.5756L106.363 53.8952L101.418 43.2631L107.952 28.5531H99.3185ZM135.086 28.5531L128.835 54.7349L150.775 55.5549L145.092 28.5531H135.086ZM138.029 48.6341L138.854 43.8559L139.423 40.1633C139.435 40.0975 139.461 39.9066 139.501 39.5906C139.54 39.2746 139.606 38.7085 139.697 37.8923C139.749 37.4843 139.798 37.1093 139.844 36.7672C139.891 36.425 139.926 36.1156 139.952 35.8389L140.207 38.7218C140.273 39.3137 140.325 39.804 140.364 40.1927C140.404 40.5813 140.436 40.8874 140.462 41.1109C140.711 43.1121 140.848 44.2574 140.874 44.547C140.886 44.7265 140.913 44.9048 140.952 45.0802L141.482 48.6347H138.029V48.6341ZM155.6 59.7724H163.565L163.968 56.8898L154.886 56.5503L155.6 59.7724ZM83.613 53.8866V59.7724H91.7947L91.7091 54.1887L83.613 53.8866ZM178.016 28.5531L176.523 38.0111C176.314 39.3273 176.125 40.795 175.954 42.4144C175.784 44.0337 175.627 45.8896 175.484 47.982C174.999 43.3226 174.43 39.2879 173.777 35.8781L172.404 28.5531H165.36L163.831 37.2602C163.398 39.775 163.044 42.4276 162.769 45.2178L162.516 47.607L162.241 44.8228C162.045 42.9147 161.691 40.2886 161.181 36.9446L159.847 28.5531H151.763L157.8 55.8181L166.883 56.1576L168.028 47.9828C168.159 47.0615 168.27 46.1861 168.362 45.3567C168.454 44.5273 168.532 43.7377 168.597 42.9877C168.728 41.5134 168.826 40.5063 168.892 39.9665C168.918 40.2298 168.963 40.6113 169.03 41.1116C169.097 41.6119 169.173 42.2368 169.265 42.9877C169.448 44.5014 169.723 46.2915 170.089 48.3579L171.494 56.3301L180.338 56.6605L186 28.5539H178.016V28.5531ZM169.06 59.7724H176.947L177.426 57.3927L168.582 57.0622L169.06 59.7724ZM139.542 55.9768L140.139 59.7724H148.596L147.862 56.2877L139.542 55.9768ZM108.001 59.0224C110.199 59.8777 112.259 60.3055 114.181 60.3058C116.967 60.3058 119.269 59.3316 121.088 57.3834C121.659 56.7681 122.149 56.0818 122.545 55.3415L108.001 54.7981V59.0224ZM94.9011 54.3084L97.0134 59.7724H105.843L103.45 54.6279L94.9011 54.3084ZM124.894 59.7724H133.35L134.017 55.9025L125.921 55.4679L124.894 59.7724ZM22.0652 69.8941H27.3922C27.3945 70.3957 27.3717 70.8971 27.3239 71.3964C27.2832 71.8238 27.1912 72.2448 27.0501 72.6502C26.8704 73.1698 26.6067 73.6563 26.2696 74.0904C25.9468 74.5032 25.5556 74.8574 25.113 75.1375C24.6611 75.422 24.1696 75.6379 23.6545 75.7782C23.1102 75.927 22.5483 76.0011 21.984 75.9986C21.2326 76.0082 20.4864 75.8725 19.7863 75.5992C19.1463 75.3475 18.5657 74.9651 18.0816 74.4762C17.5973 73.9792 17.2198 73.3882 16.9724 72.7395C16.7005 72.0246 16.5657 71.2648 16.5753 70.4999C16.5667 69.7403 16.699 68.9858 16.9653 68.2746C17.2086 67.6259 17.5866 67.0362 18.0746 66.5448C18.569 66.0573 19.1587 65.6774 19.8066 65.4288C20.5279 65.1544 21.2945 65.0189 22.0661 65.0295C23.0566 65.0075 24.035 65.2501 24.9007 65.7324C25.7516 66.2433 26.4255 67.0032 26.8313 67.9097L24.2843 68.9704C24.1065 68.4779 23.7844 68.0506 23.3602 67.7442C22.9753 67.4943 22.5248 67.3647 22.0661 67.3721C21.6889 67.3671 21.3151 67.4445 20.9709 67.5989C20.6449 67.7487 20.357 67.9701 20.1284 68.2468C19.8849 68.5475 19.6992 68.8909 19.5809 69.2595C19.4436 69.687 19.3766 70.134 19.3824 70.583C19.3787 70.9978 19.4363 71.411 19.5535 71.809C19.6572 72.1664 19.8318 72.4992 20.0669 72.7875C20.2964 73.0642 20.5871 73.2837 20.9159 73.4288C21.288 73.5867 21.6894 73.6639 22.0935 73.6555C22.3517 73.6565 22.6091 73.6265 22.8602 73.5662C23.0973 73.5108 23.3224 73.4128 23.5245 73.277C23.7218 73.1421 23.8873 72.9657 24.0096 72.7602C24.1465 72.5228 24.2353 72.2605 24.2707 71.9886H22.0655V69.895L22.0652 69.8941ZM54.751 73.9044H50.9176L50.302 75.7095H47.4395L51.3691 65.319H54.2994L58.2295 75.7095H55.3675L54.751 73.9044ZM54.0391 71.8502L52.8338 68.3911L51.6291 71.8502H54.0391ZM78.6594 75.709L80.412 65.3184H83.0684L85.1367 70.8605L87.1906 65.3206H89.847L91.6005 75.7112H88.9296L88.0405 69.7295L85.6031 75.7105H84.5334L82.2202 69.7295L81.33 75.7105H78.6598L78.6594 75.709ZM115.699 65.3184V75.709H113.016V65.3184H115.7H115.699ZM137.581 75.709V65.3184H140.266L145.222 71.6713V65.3199H147.892V75.7105H145.221L140.265 69.3575V75.7105H137.581L137.581 75.709ZM174.99 69.895H180.318C180.318 70.4461 180.294 70.9471 180.249 71.3974C180.208 71.8248 180.116 72.2458 179.975 72.6512C179.795 73.1706 179.532 73.6572 179.195 74.0914C178.872 74.5042 178.481 74.8583 178.038 75.1385C177.586 75.4228 177.095 75.6387 176.579 75.7792C176.035 75.9279 175.472 76.002 174.908 75.9995C174.157 76.009 173.41 75.8733 172.71 75.6001C172.07 75.3482 171.49 74.9658 171.005 74.4772C170.522 73.9797 170.145 73.3887 169.897 72.7404C169.37 71.2994 169.367 69.7183 169.89 68.2755C170.133 67.6265 170.511 67.0368 171 66.5457C171.494 66.0583 172.083 65.6784 172.731 65.4297C173.452 65.1553 174.219 65.0199 174.99 65.0304C175.98 65.0084 176.958 65.251 177.824 65.7334C178.675 66.244 179.35 67.004 179.756 67.9106L177.208 68.9713C177.031 68.4788 176.709 68.0514 176.285 67.7452C175.9 67.4952 175.449 67.3657 174.99 67.373C174.613 67.3681 174.239 67.4455 173.895 67.5999C173.569 67.7493 173.282 67.9708 173.054 68.2477C172.81 68.5483 172.624 68.8917 172.505 69.2604C172.367 69.6879 172.3 70.1348 172.306 70.5839C172.302 70.9988 172.36 71.4119 172.477 71.8099C172.581 72.1676 172.756 72.5005 172.992 72.7884C173.222 73.0652 173.512 73.2847 173.841 73.4297C174.213 73.5878 174.614 73.6651 175.018 73.6564C175.276 73.6574 175.534 73.6275 175.785 73.5672C176.022 73.5117 176.247 73.4137 176.449 73.2779C176.646 73.1428 176.813 72.9666 176.936 72.7612C177.071 72.5232 177.159 72.2612 177.195 71.9895H174.99V69.895Z" fill="white"/>
</svg>
