<svg width="200" height="95" viewBox="0 0 200 95" fill="none" xmlns="http://www.w3.org/2000/svg">
<g clip-path="url(#clip0_4527_2888)">
<path d="M69.3132 11.2908H129.683C132.996 11.2908 135.707 14.0016 135.707 17.3149V77.6849C135.707 80.9982 132.996 83.709 129.683 83.709H69.3132C65.9999 83.709 63.2891 80.9982 63.2891 77.6849V17.3149C63.2891 13.9586 65.9569 11.2908 69.3132 11.2908Z" fill="#FDB913"/>
<path d="M129.685 11.2909C132.998 11.2909 135.709 14.0017 135.709 17.315V77.685C135.709 80.9983 132.998 83.7091 129.685 83.7091H69.315C66.0017 83.7091 63.2909 80.9983 63.2909 77.685V17.315C63.2909 14.0017 65.9587 11.2909 69.315 11.2909H129.685ZM129.685 10H69.315C65.2702 10 62 13.2702 62 17.315V77.685C62 81.7298 65.2702 85 69.315 85H129.685C133.73 85 137 81.7298 137 77.685V17.315C137 13.2702 133.73 10 129.685 10Z" fill="white"/>
<path d="M103.742 48.296V35.3442L107.141 34.5267V36.2479C107.141 36.2479 108.002 34.0103 110.067 33.494C110.369 33.4079 110.713 33.3649 111.014 33.451V36.6782C110.412 36.6782 109.809 36.8072 109.25 37.0654C108.002 37.5387 107.357 38.6575 107.357 40.2926V47.4355L103.742 48.296Z" fill="#231F20"/>
<path d="M85.8821 52.5129C85.8821 52.5129 85.3227 51.6954 85.3227 48.7694V42.272L83.6016 42.7023V40.0344L85.3658 39.6041V36.7212L88.9802 35.8606V38.7436L91.5189 38.1411V40.809L88.9802 41.4114C88.9802 41.4114 88.9802 46.704 88.9802 47.9949C88.9802 50.9639 89.7547 51.5663 89.7547 51.5663L85.8821 52.5129Z" fill="#231F20"/>
<path d="M91.8594 44.7677C91.8594 42.4441 92.2036 40.7659 92.8921 39.4751C93.7096 37.926 95.0866 36.9363 97.1089 36.506C101.068 35.6024 102.488 37.926 102.445 41.0671C102.445 42.1859 102.445 42.7453 102.445 42.7453L95.4738 44.3804V44.5095C95.4738 46.704 95.9472 47.7367 97.3241 47.4355C98.5289 47.1773 98.8731 46.4458 98.9592 45.4992C98.9592 45.3701 99.0022 44.9828 99.0022 44.9828L102.272 44.2083C102.272 44.2083 102.272 44.4665 102.272 44.7677C102.229 46.0155 101.885 49.1136 97.3671 50.1893C92.9781 51.179 91.8594 48.5542 91.8594 44.7677ZM97.238 38.9157C96.0762 39.1738 95.4738 40.2926 95.4738 42.1859L98.9592 41.3683C98.9592 41.2823 98.9592 41.1102 98.9592 40.809C98.9592 39.389 98.5289 38.6575 97.238 38.9157Z" fill="#231F20"/>
<path d="M123.143 37.1945C123.014 33.2358 124.047 30.0947 128.436 29.105C131.233 28.4595 132.308 29.191 132.868 29.9225C133.384 30.611 133.599 31.5146 133.599 32.7625V32.9776L130.157 33.7952V33.3218C130.157 31.8158 129.727 31.2564 128.651 31.5146C127.36 31.8588 126.801 33.0637 126.801 35.5594C126.801 36.42 126.801 36.5921 126.801 36.7212C126.801 39.2169 127.145 40.3786 128.651 40.0344C129.942 39.7762 130.114 38.6144 130.157 37.6248C130.157 37.4527 130.157 36.9793 130.157 36.9793L133.599 36.1618C133.599 36.1618 133.599 36.42 133.599 36.6781C133.599 39.9484 131.878 42.0138 128.608 42.7883C124.133 43.821 123.272 41.2392 123.143 37.1945Z" fill="#231F20"/>
<path d="M111.227 42.7453C111.227 39.7332 112.991 38.7866 115.616 37.7109C117.982 36.7212 118.068 36.2479 118.068 35.3873C118.068 34.6558 117.767 34.0534 116.562 34.3546C115.745 34.5267 115.142 35.2152 115.142 36.0327C115.142 36.2479 115.099 36.463 115.099 36.6782L111.743 37.4527C111.7 36.8073 111.786 36.1188 111.958 35.4733C112.474 33.6661 114.066 32.4613 116.82 31.8159C120.392 30.9983 121.554 32.5474 121.554 35V40.7229C121.554 43.5198 122.07 43.9071 122.07 43.9071L118.8 44.6816C118.628 44.2943 118.455 43.9071 118.369 43.5198C118.369 43.5198 117.638 45.327 115.185 45.9295C112.603 46.5319 111.227 44.9398 111.227 42.7453ZM118.068 38.6145C117.509 39.0017 116.949 39.346 116.304 39.6472C115.228 40.1635 114.712 40.852 114.712 41.8417C114.712 42.7023 115.271 43.3047 116.261 43.0465C117.337 42.7883 118.068 41.7986 118.068 40.4217V38.6145Z" fill="#231F20"/>
<path d="M67.0342 61.5921C65.8724 61.5921 64.9688 60.6455 64.9688 59.5267C64.9688 59.1394 65.0978 58.7522 65.313 58.4079L65.356 58.3649H65.399L70.3044 57.2031V60.9036H70.2183C69.0996 61.1618 67.7657 61.463 67.5075 61.5491C67.3354 61.5491 67.2063 61.5921 67.0342 61.5921Z" fill="#231F20"/>
<path d="M67.0342 66.3253C65.8724 66.3253 64.9688 65.3786 64.9688 64.2599C64.9688 63.8726 65.0978 63.4853 65.313 63.1411L65.356 63.0981H65.399L70.3044 61.9363V65.6368H70.2183C69.0996 65.895 67.7657 66.1962 67.5075 66.2822C67.3354 66.3253 67.2063 66.3253 67.0342 66.3253Z" fill="#231F20"/>
<path d="M67.0342 71.1016C65.8724 71.1016 64.9688 70.155 64.9688 69.0362C64.9688 68.649 65.0978 68.2617 65.313 67.9175L65.356 67.8744L70.3044 66.7126V70.4132H70.2183C69.0565 70.7144 67.7226 70.9725 67.5075 71.0586C67.3354 71.1016 67.2063 71.1016 67.0342 71.1016Z" fill="#231F20"/>
<path d="M66.4766 57.031V36.2048L70.2631 35.3442V56.1274L66.4766 57.031Z" fill="#231F20"/>
<path d="M75.944 55.2667C75.944 53.9758 74.9113 52.9431 73.6205 52.9431C72.3296 52.9431 71.2969 53.9758 71.2969 55.2667V74.7159C71.2969 78.2013 74.1368 81.0412 77.6222 81.0412C79.3864 81.0412 84.2487 81.0412 84.2487 81.0412V72.9087C84.2487 68.4767 84.2487 63.9586 84.2487 63.8725C84.2487 62.8398 83.7323 61.8932 82.8717 61.3338L76.9337 57.3321C76.9337 57.3321 76.9337 66.024 76.9337 66.4543C76.9337 66.7125 76.7186 66.9706 76.4174 66.9706C76.1592 66.9706 75.901 66.7555 75.901 66.4543C75.944 66.3252 75.944 56.4715 75.944 55.2667Z" fill="#231F20"/>
<path d="M79.0799 40.7659C77.6169 41.1102 76.4121 42.0568 75.7236 43.3907V41.9277L72.2812 42.7022V52.0396C73.4861 51.5663 74.906 51.7814 75.8957 52.685V46.6609C75.8957 45.1979 76.6272 44.0792 77.6599 43.821C78.4344 43.6489 79.0799 43.9071 79.0799 45.284V54.062L82.6943 53.2014V43.9501C82.6513 41.7126 81.7907 40.1205 79.0799 40.7659Z" fill="#231F20"/>
</g>
<defs>
<clipPath id="clip0_4527_2888">
<rect width="75" height="75" fill="white" transform="translate(62 10)"/>
</clipPath>
</defs>
</svg>
