<svg width="200" height="95" viewBox="0 0 200 95" fill="none" xmlns="http://www.w3.org/2000/svg">
<path d="M140.189 55.1347C140.189 61.9726 134.658 67.5405 127.865 67.5405H60.8105V18.4058C60.8105 11.568 66.3418 6 73.1345 6H140.189V55.1347Z" fill="white"/>
<path d="M118.605 42.4069H123.716C123.862 42.4069 124.203 42.3583 124.349 42.3583C125.322 42.1636 126.15 41.2875 126.15 40.0707C126.15 38.9025 125.322 38.0264 124.349 37.783C124.203 37.7344 123.911 37.7344 123.716 37.7344H118.605V42.4069Z" fill="url(#paint0_linear)"/>
<path d="M123.132 10.1367C118.264 10.1367 114.273 14.0792 114.273 18.9951V28.1942H126.782C127.074 28.1942 127.415 28.1942 127.658 28.2429C130.481 28.3889 132.574 29.8491 132.574 32.3801C132.574 34.3756 131.163 36.0792 128.534 36.4199V36.5172C131.406 36.7119 133.596 38.3181 133.596 40.8004C133.596 43.4774 131.163 45.2296 127.95 45.2296H114.225V63.2385H127.22C132.087 63.2385 136.079 59.296 136.079 54.3801V10.1367H123.132Z" fill="url(#paint1_linear)"/>
<path d="M125.517 32.9643C125.517 31.7962 124.69 31.0174 123.716 30.8714C123.619 30.8714 123.375 30.8228 123.229 30.8228H118.605V35.1059H123.229C123.375 35.1059 123.667 35.1059 123.716 35.0573C124.69 34.9112 125.517 34.1325 125.517 32.9643Z" fill="url(#paint2_linear)"/>
<path d="M73.9938 10.459C69.2264 10.459 65.3172 14.3694 65.3172 19.2453V40.9216C67.7485 42.1285 70.2752 42.9009 72.8019 42.9009C75.8054 42.9009 77.4263 41.0664 77.4263 38.556V28.3214H84.8633V38.5077C84.8633 42.4664 82.432 45.701 74.1845 45.701C69.1787 45.701 65.2695 44.5906 65.2695 44.5906V63.0806H77.9983C82.7657 63.0806 86.6749 59.1702 86.6749 54.2942V10.459H73.9938Z" fill="url(#paint3_linear)"/>
<path d="M98.3896 10.459C93.4237 10.459 89.3516 14.3622 89.3516 19.2293V30.6981C91.6359 28.8187 95.6087 27.614 102.015 27.9031C105.441 28.0477 109.116 28.9633 109.116 28.9633V32.6738C107.279 31.7582 105.094 30.939 102.263 30.7463C97.3965 30.4089 94.4665 32.722 94.4665 36.7698C94.4665 40.8658 97.3965 43.1788 102.263 42.7933C105.094 42.6006 107.279 41.7332 109.116 40.8658V44.5763C109.116 44.5763 105.491 45.4919 102.015 45.6364C95.6087 45.9256 91.6359 44.7209 89.3516 42.8415V63.0806H102.611C107.577 63.0806 111.649 59.1773 111.649 54.3103V10.459H98.3896Z" fill="url(#paint4_linear)"/>
<path d="M52.4115 75.6016V81.929C52.4115 82.9998 52.6549 83.4865 52.8496 83.7786C53.4823 84.606 54.4557 84.8007 55.1858 84.8007C57.9602 84.8007 57.9602 82.6591 57.9602 81.929V75.6989H59.323V81.9777C59.323 82.5131 59.323 83.6812 58.4956 84.7033C57.4734 85.9688 55.9646 86.1148 55.1858 86.1148C54.2124 86.1148 52.5575 85.8715 51.5841 84.5086C51.292 84.0706 51 83.4865 51 81.929V75.6989H52.4115V75.6016Z" fill="white"/>
<path d="M61.5625 79.4954V78.668H62.8767V79.7875C63.0227 79.4954 63.5581 78.522 65.1643 78.522C65.797 78.522 67.7439 78.7653 67.7439 80.9556V85.7742H66.3811V81.2963C66.3811 80.8096 66.3324 80.4202 65.9917 80.0795C65.651 79.7388 65.1643 79.5928 64.7262 79.5928C63.7528 79.5928 62.8767 80.2742 62.8767 81.6857V85.7742H61.5625V79.4954V79.4954Z" fill="white"/>
<path d="M69.9824 75.6016H71.5886V77.0617H69.9824V75.6016ZM70.1284 78.6679H71.4426V85.7255H70.1284V78.6679Z" fill="white"/>
<path d="M80.2028 78.6682C80.2028 78.9602 80.1541 79.5929 80.1541 79.8363V88.5H78.7913V84.9956C78.694 85.1416 78.548 85.385 78.2072 85.5797C77.6232 85.969 76.9418 86.0177 76.6011 86.0177C74.8975 86.0177 73.3887 84.8009 73.3887 82.1726C73.3887 79.5443 74.8488 78.5708 76.3577 78.5708C77.8179 78.5708 78.4506 79.3496 78.7913 79.8363L78.84 78.6682H80.2028ZM76.7471 79.5443C74.8488 79.5443 74.8002 81.5398 74.8002 82.0752C74.8002 82.562 74.8488 83.6327 75.3842 84.3142C75.6763 84.7522 76.2603 84.9956 76.8931 84.9956C78.548 84.9956 78.84 83.7301 78.84 82.3186C78.8887 81.7832 78.8887 79.5443 76.7471 79.5443Z" fill="white"/>
<path d="M83.9995 78.668V83.2432C83.9995 83.9246 84.1456 84.8007 85.5084 84.8007C86.1898 84.8007 86.7739 84.5573 87.1633 84.0219C87.4553 83.5839 87.4553 83.0485 87.4553 82.7078V78.7166H88.8181V84.46C88.8181 84.606 88.8668 85.3848 88.8668 85.7742H87.504L87.4553 84.5573C87.2119 85.0441 86.7252 85.8228 85.2164 85.8228C83.4642 85.8228 82.6367 84.8007 82.6367 83.4379V78.668H83.9995Z" fill="white"/>
<path d="M92.2741 82.4645C92.2254 83.9247 92.8582 84.9955 94.3184 84.9955C95.1945 84.9955 95.8759 84.5575 95.9732 83.5353H97.2874C97.2387 83.876 97.19 84.4601 96.7033 84.9955C96.4113 85.3362 95.6812 85.9203 94.2697 85.9203C92.0308 85.9203 90.96 84.5575 90.96 82.3185C90.96 80.907 91.252 79.7876 92.3715 79.0088C93.0529 78.5221 93.8803 78.4734 94.3184 78.4734C97.4821 78.4734 97.4334 81.2964 97.3847 82.4159H92.2741V82.4645ZM95.9732 81.5398C95.9732 80.8583 95.8759 79.4468 94.221 79.4468C93.3449 79.4468 92.3228 79.9822 92.2741 81.5398H95.9732Z" fill="white"/>
<path d="M99.5752 75.6016H100.889V85.7741H99.5752V75.6016Z" fill="white"/>
<path d="M106.486 85.8228L105.464 88.4511H104.101L105.172 85.7255L102.203 78.668H103.712L105.951 84.2653L108.19 78.668H109.65L106.486 85.8228Z" fill="white"/>
<path d="M116.708 81.783L112.717 75.6016H114.469L117.487 80.6148L120.553 75.6016H122.111L118.119 81.8317V85.7741H116.708V81.783Z" fill="white"/>
<path d="M124.982 78.522C127.805 78.522 128.438 80.7609 128.438 82.2211C128.438 84.314 127.27 86.0175 124.836 86.0175C122.5 86.0175 121.332 84.4114 121.332 82.3184C121.381 80.5662 122.208 78.522 124.982 78.522ZM124.885 84.9954C125.907 84.9954 127.027 84.2653 127.027 82.1237C127.027 80.3715 126.199 79.4467 124.982 79.4467C124.155 79.4467 122.792 79.9821 122.792 82.2211C122.744 83.6813 123.376 84.9954 124.885 84.9954Z" fill="white"/>
<path d="M131.796 78.668V83.2432C131.796 83.9246 131.942 84.8007 133.305 84.8007C133.987 84.8007 134.571 84.5573 134.96 84.0219C135.252 83.5839 135.252 83.0485 135.252 82.7078V78.7166H136.615V84.46C136.615 84.606 136.664 85.3848 136.664 85.7742H135.301L135.252 84.5573C135.009 85.0441 134.522 85.8228 133.013 85.8228C131.261 85.8228 130.434 84.8007 130.434 83.4379V78.668H131.796Z" fill="white"/>
<path d="M139.292 80.1283C139.292 79.6416 139.243 79.1549 139.243 78.6682H140.606L140.655 80.031C140.898 79.0575 141.774 78.7168 142.358 78.6195C142.748 78.5708 143.04 78.5708 143.283 78.5708V79.885C143.234 79.8363 143.137 79.8363 143.04 79.8363C142.942 79.8363 142.796 79.8363 142.65 79.8363C141.093 79.8363 140.703 80.7611 140.703 81.9779V85.7257H139.341V80.1283H139.292Z" fill="white"/>
<path d="M145.522 83.6813C145.522 84.2167 145.814 84.9467 147.08 84.9467C147.615 84.9467 148.053 84.8494 148.345 84.5087C148.491 84.314 148.588 84.0706 148.588 83.8273C148.588 83.1459 148.102 82.9998 147.031 82.7565C145.571 82.4158 144.305 82.1237 144.305 80.6636C144.305 79.3494 145.425 78.522 147.08 78.522C147.956 78.522 149.221 78.7653 149.61 79.6414C149.805 80.0308 149.805 80.3715 149.805 80.6636H148.442C148.491 79.5928 147.566 79.4954 147.08 79.4954C146.885 79.4954 145.619 79.4954 145.619 80.5175C145.619 81.1503 146.252 81.345 146.641 81.4423C148.588 81.9291 149.026 82.0264 149.464 82.4158C149.854 82.8052 150 83.2919 150 83.7299C150 84.5087 149.562 85.1901 149.026 85.5308C148.394 85.9202 147.664 86.0175 146.934 86.0175C145.473 86.0175 144.159 85.4335 144.159 83.7299H145.522V83.6813Z" fill="white"/>
<defs>
<linearGradient id="paint0_linear" x1="114.264" y1="40.0755" x2="136.139" y2="40.0755" gradientUnits="userSpaceOnUse">
<stop stop-color="#007940"/>
<stop offset="0.2285" stop-color="#00873F"/>
<stop offset="0.7433" stop-color="#40A737"/>
<stop offset="1" stop-color="#5CB531"/>
</linearGradient>
<linearGradient id="paint1_linear" x1="114.265" y1="36.6655" x2="136.138" y2="36.6655" gradientUnits="userSpaceOnUse">
<stop stop-color="#007940"/>
<stop offset="0.2285" stop-color="#00873F"/>
<stop offset="0.7433" stop-color="#40A737"/>
<stop offset="1" stop-color="#5CB531"/>
</linearGradient>
<linearGradient id="paint2_linear" x1="114.264" y1="32.957" x2="136.137" y2="32.957" gradientUnits="userSpaceOnUse">
<stop stop-color="#007940"/>
<stop offset="0.2285" stop-color="#00873F"/>
<stop offset="0.7433" stop-color="#40A737"/>
<stop offset="1" stop-color="#5CB531"/>
</linearGradient>
<linearGradient id="paint3_linear" x1="65.3064" y1="36.772" x2="87.0617" y2="36.772" gradientUnits="userSpaceOnUse">
<stop stop-color="#1F286F"/>
<stop offset="0.4751" stop-color="#004E94"/>
<stop offset="0.8261" stop-color="#0066B1"/>
<stop offset="1" stop-color="#006FBC"/>
</linearGradient>
<linearGradient id="paint4_linear" x1="89.2225" y1="36.7238" x2="111.232" y2="36.7238" gradientUnits="userSpaceOnUse">
<stop stop-color="#6C2C2F"/>
<stop offset="0.1735" stop-color="#882730"/>
<stop offset="0.5731" stop-color="#BE1833"/>
<stop offset="0.8585" stop-color="#DC0436"/>
<stop offset="1" stop-color="#E60039"/>
</linearGradient>
</defs>
</svg>
