<svg width="144" height="36" viewBox="0 0 144 36" fill="none" xmlns="http://www.w3.org/2000/svg">
<path fill-rule="evenodd" clip-rule="evenodd" d="M19.7218 2.30575C19.8893 1.35963 20.7116 0.670135 21.6725 0.670135H29.7917C31.0241 0.670135 31.9574 1.78323 31.7425 2.99666L30.3055 11.111C30.1379 12.0571 29.3156 12.7466 28.3548 12.7466H20.2355C19.0032 12.7466 18.0699 11.6335 18.2848 10.4201L19.7218 2.30575ZM17.2346 16.3951C17.4022 15.449 18.2245 14.7595 19.1854 14.7595H27.3046C28.537 14.7595 29.4702 15.8726 29.2554 17.086L27.8184 25.2004C27.6508 26.1465 26.8285 26.836 25.8677 26.836H17.7484C16.5161 26.836 15.5828 25.7229 15.7977 24.5095L17.2346 16.3951ZM4.99475 14.7595C4.03391 14.7595 3.21159 15.449 3.04404 16.3951L1.60707 24.5095C1.39218 25.7229 2.32547 26.836 3.55779 26.836H11.6771C12.6379 26.836 13.4602 26.1465 13.6278 25.2004L15.0647 17.086C15.2796 15.8726 14.3463 14.7595 13.114 14.7595H4.99475Z" fill="#1ED760"/>
<path d="M34.2061 0.672897H47.5503C50.0813 0.672897 52.0735 1.23364 53.527 2.35514C54.9804 3.45171 55.7071 4.9595 55.7071 6.8785C55.7071 8.2243 55.3563 9.44548 54.6547 10.5421C53.953 11.6386 52.9631 12.5109 51.6851 13.1589C52.5622 13.6573 53.2388 14.3427 53.7149 15.215C54.2161 16.0623 54.4667 17.0467 54.4667 18.1682C54.4667 19.9128 54.0156 21.4455 53.1135 22.7664C52.2114 24.0623 50.9333 25.0717 49.2794 25.7944C47.6505 26.4922 45.746 26.8411 43.5658 26.8411H29.5869L34.2061 0.672897ZM44.2424 21.0841C45.2699 21.0841 46.0718 20.8349 46.6481 20.3364C47.2496 19.8131 47.5503 19.1028 47.5503 18.2056C47.5503 17.5576 47.3248 17.0467 46.8737 16.6729C46.4477 16.2741 45.8713 16.0748 45.1446 16.0748H38.5289L37.6377 21.0841H44.2424ZM45.8212 10.6168C46.6732 10.6168 47.3498 10.405 47.851 9.98131C48.3522 9.53271 48.6028 8.94704 48.6028 8.2243C48.6028 7.65109 48.4148 7.20249 48.039 6.8785C47.6881 6.5296 47.1995 6.35514 46.573 6.35514H40.2372L39.4843 10.6168H45.8212Z" fill="white"/>
<path d="M66.1029 27.2523C64.1733 27.2523 62.4944 26.9283 61.066 26.2804C59.6626 25.6075 58.5851 24.6729 57.8333 23.4766C57.0815 22.2804 56.7056 20.8847 56.7056 19.2897C56.7056 18.6417 56.7557 18.0312 56.856 17.4579C57.3822 14.4424 58.6728 12.1121 60.7277 10.4673C62.8076 8.79751 65.4388 7.96262 68.6214 7.96262C70.4006 7.96262 71.9543 8.27415 73.2825 8.8972C74.6106 9.49533 75.6255 10.3551 76.3272 11.4766C77.0288 12.5732 77.3797 13.8442 77.3797 15.2897C77.3797 16.5857 77.079 17.9813 76.4775 19.4766H63.5844C63.7097 20.1994 64.1232 20.785 64.8249 21.2336C65.5266 21.6822 66.4162 21.9065 67.4937 21.9065C69.0725 21.9065 70.6387 21.4081 72.1924 20.4112L74.974 24.4486C73.7461 25.4455 72.4304 26.1682 71.0271 26.6168C69.6238 27.0405 67.9824 27.2523 66.1029 27.2523ZM70.8392 16.0748C70.9143 15.8006 70.9519 15.5514 70.9519 15.3271C70.9519 14.6542 70.6888 14.1184 70.1626 13.7196C69.6363 13.3209 68.8845 13.1215 67.9072 13.1215C66.0277 13.1215 64.7497 14.0561 64.0731 15.9252L64.0355 16.0748H70.8392Z" fill="white"/>
<path d="M86.5473 27.2897C84.6929 27.2897 83.2771 26.866 82.2998 26.0187C81.3224 25.1464 80.8338 23.8879 80.8338 22.243C80.8338 21.6449 80.8839 21.0841 80.9841 20.5607L82.1912 13.6822H79.2174L80.1572 8.37383H83.1267L83.9161 3.92523L90.9077 3.17757L89.968 8.37383H94.1779L93.2402 13.6822H89.0282L88.0133 19.4766C87.9632 19.8255 87.9381 20.0498 87.9381 20.1495C87.9381 21.0218 88.4393 21.4579 89.4417 21.4579C90.1183 21.4579 90.8325 21.296 91.5843 20.972L92.1857 26.0561C90.5318 26.8785 88.6523 27.2897 86.5473 27.2897Z" fill="white"/>
<path d="M97.5519 8.37383H104.506L101.25 26.8411H94.2998L97.5519 8.37383ZM98.0405 3.36449C98.1909 2.41745 98.6795 1.61994 99.5065 0.971964C100.333 0.323988 101.286 0 102.363 0C103.416 0 104.243 0.261683 104.844 0.785048C105.471 1.30841 105.784 2.03115 105.784 2.95327C105.784 3.12773 105.759 3.38941 105.709 3.73832C105.533 4.68536 105.032 5.48287 104.205 6.13084C103.403 6.75389 102.464 7.06542 101.386 7.06542C100.333 7.06542 99.5065 6.80374 98.9051 6.28038C98.3036 5.73209 98.0029 4.98442 98.0029 4.03738C98.0029 3.73832 98.0155 3.51402 98.0405 3.36449Z" fill="white"/>
<path d="M110.523 7.06542C110.924 4.82243 111.902 3.09034 113.455 1.86916C115.034 0.623054 117.039 0 119.47 0C120.698 0 121.775 0.174454 122.702 0.523364C123.655 0.872274 124.419 1.37072 124.995 2.01869L122.176 6.13084C121.9 5.8567 121.562 5.64486 121.161 5.49533C120.785 5.34579 120.397 5.27103 119.996 5.27103C119.294 5.27103 118.718 5.49533 118.267 5.94393C117.816 6.3676 117.506 6.98154 117.356 7.80397L117.252 8.37383H122.029L121.086 13.7196H116.312L113.999 26.8411H107.042L109.358 13.7196H106.235L107.178 8.37383H110.298L110.523 7.06542Z" fill="white"/>
<path d="M128.894 36C127.34 36 125.887 35.8006 124.533 35.4019C123.205 35.028 121.877 34.4299 120.549 33.6075L123.706 28.8972C124.508 29.3956 125.398 29.7819 126.375 30.0561C127.352 30.3551 128.305 30.5047 129.232 30.5047C130.66 30.5047 131.75 30.1807 132.502 29.5327C133.279 28.8847 133.793 27.8505 134.043 26.4299L134.306 24.9346C132.653 26.2305 130.698 26.8785 128.443 26.8785C126.463 26.8785 124.947 26.3676 123.894 25.3458C122.867 24.324 122.353 22.8411 122.353 20.8972C122.353 20.1246 122.448 19.3146 122.598 18.4673L124.383 8.37383H131.327L129.645 17.9439C129.57 18.3178 129.533 18.6791 129.533 19.028C129.533 19.7757 129.708 20.3614 130.059 20.785C130.41 21.1838 130.911 21.3832 131.562 21.3832C132.565 21.3832 133.404 21.0592 134.081 20.4112C134.758 19.7632 135.205 18.8536 135.405 17.6822L137.051 8.37383H144.001L140.659 27.1402C140.108 30.1807 138.88 32.4112 136.975 33.8318C135.096 35.2773 132.402 36 128.894 36Z" fill="white"/>
</svg>
