<svg width="200" height="95" viewBox="0 0 200 95" fill="none" xmlns="http://www.w3.org/2000/svg">
<path d="M70.8572 70.6532H69.4002V53.9338H70.8572V70.6532ZM81.9636 53.9338C83.2423 53.9146 84.5149 54.1116 85.7279 54.5166C86.7895 54.8677 87.7659 55.4372 88.5941 56.1886C89.3711 56.9241 89.9777 57.8209 90.3711 58.8159C91.2159 61.0524 91.2159 63.5203 90.3711 65.7568C89.9713 66.7557 89.3564 67.6544 88.5702 68.3889C87.7421 69.1404 86.7657 69.7099 85.704 70.0608C84.4926 70.4653 83.2216 70.6624 81.9445 70.6436H75.8587V53.9243L81.9636 53.9338ZM77.3204 55.3191V69.2679H81.9636C83.0578 69.293 84.1482 69.1315 85.1881 68.7902C86.0619 68.4934 86.863 68.0147 87.5384 67.3857C88.1763 66.7713 88.6664 66.0199 88.9714 65.1883C89.6184 63.3323 89.6184 61.312 88.9714 59.456C88.6652 58.6236 88.1754 57.8709 87.5384 57.2538C86.865 56.6221 86.0634 56.1431 85.1881 55.8494C84.1478 55.51 83.0577 55.3485 81.9636 55.3717L77.3204 55.3191ZM108.896 53.7428C109.596 53.7409 110.293 53.821 110.974 53.9816C111.627 54.1351 112.259 54.366 112.856 54.6695C113.431 54.9597 113.965 55.3225 114.447 55.7491C114.917 56.1667 115.326 56.6492 115.66 57.1822L114.442 57.9942C114.156 57.5557 113.812 57.1573 113.42 56.8096C113.025 56.4596 112.589 56.1596 112.121 55.9163C111.636 55.6654 111.123 55.4745 110.592 55.3478C110.038 55.216 109.47 55.1502 108.901 55.1519C107.951 55.1443 107.009 55.3195 106.125 55.6679C105.293 55.9901 104.534 56.4776 103.895 57.101C103.252 57.7454 102.745 58.512 102.404 59.3557C101.68 61.2307 101.68 63.3085 102.404 65.1836C102.746 66.0294 103.255 66.7978 103.899 67.4431C104.539 68.0664 105.298 68.5539 106.13 68.8762C107.014 69.2245 107.956 69.3997 108.906 69.3921C109.472 69.3935 110.036 69.3294 110.587 69.201C111.116 69.0791 111.628 68.8914 112.111 68.6421C112.581 68.3993 113.019 68.0993 113.415 67.7488C113.809 67.3996 114.153 66.9977 114.437 66.5546L115.632 67.4287C115.285 67.9594 114.869 68.4414 114.394 68.8618C113.915 69.2789 113.385 69.6351 112.818 69.9223C112.228 70.2212 111.604 70.4474 110.96 70.5959C109.144 71.0092 107.245 70.8694 105.509 70.1946C104.495 69.794 103.571 69.1947 102.791 68.4319C102.016 67.6629 101.405 66.7448 100.995 65.7329C100.128 63.5121 100.128 61.0462 100.995 58.8254C101.404 57.8117 102.015 56.8919 102.791 56.1217C103.571 55.3588 104.495 54.7595 105.509 54.359C106.587 53.9384 107.735 53.7292 108.891 53.7428H108.896ZM120.614 61.3859C120.828 61.0314 121.092 60.7096 121.397 60.4305C121.683 60.1657 122.005 59.9421 122.353 59.7665C122.702 59.5955 123.071 59.4672 123.452 59.3843C123.828 59.3018 124.212 59.2601 124.598 59.2601C125.248 59.2535 125.895 59.3602 126.509 59.5754C127.065 59.7712 127.575 60.0784 128.009 60.4783C128.429 60.8799 128.755 61.3692 128.964 61.9114C129.198 62.5109 129.313 63.1501 129.303 63.7935V70.6818H127.942V64.1804C127.949 63.661 127.868 63.1442 127.703 62.6518C127.556 62.2201 127.315 61.8268 126.996 61.5005C126.676 61.18 126.29 60.9338 125.864 60.7792C125.374 60.6035 124.856 60.5178 124.335 60.526C123.831 60.5216 123.33 60.6124 122.859 60.7935C122.413 60.9648 122.007 61.2248 121.665 61.5578C121.323 61.8957 121.052 62.2985 120.867 62.7425C120.669 63.2208 120.57 63.7343 120.576 64.2521V70.6532H119.214V53.4561H120.576L120.614 61.3859ZM138.227 59.2601C138.943 59.2542 139.653 59.399 140.309 59.6853C140.938 59.9594 141.502 60.3612 141.967 60.8652C142.447 61.3945 142.822 62.0106 143.07 62.6804C143.348 63.4196 143.491 64.2028 143.491 64.9925C143.491 65.0976 143.491 65.1947 143.491 65.2839C143.491 65.3731 143.491 65.4622 143.491 65.5514H134.042C134.077 66.1547 134.224 66.7461 134.477 67.295C134.707 67.7851 135.032 68.2249 135.432 68.5895C135.822 68.9442 136.278 69.2185 136.774 69.3968C137.294 69.5834 137.842 69.6771 138.394 69.6739C139.121 69.686 139.841 69.5393 140.505 69.244C141.131 68.9551 141.702 68.5591 142.192 68.0736L142.922 69.029C142.591 69.3662 142.224 69.6673 141.828 69.9271C141.473 70.1588 141.093 70.3511 140.696 70.5003C140.317 70.6427 139.923 70.7436 139.521 70.8013C139.121 70.8563 138.717 70.8834 138.313 70.8825C137.536 70.8903 136.765 70.7459 136.044 70.4573C135.371 70.1886 134.761 69.7836 134.252 69.2679C133.737 68.7375 133.337 68.1065 133.077 67.4144C132.782 66.6531 132.636 65.8423 132.647 65.0259C132.639 64.2273 132.783 63.4345 133.072 62.69C133.337 62.0056 133.735 61.3804 134.243 60.8509C134.744 60.3349 135.345 59.9269 136.01 59.6518C136.712 59.3654 137.464 59.2241 138.222 59.2363L138.227 59.2601ZM138.227 60.4687C137.689 60.4615 137.155 60.5605 136.655 60.7601C136.191 60.9489 135.768 61.2245 135.408 61.5722C135.043 61.9281 134.745 62.3472 134.529 62.8094C134.297 63.3069 134.15 63.8397 134.095 64.3858H142.106C142.065 63.8353 141.931 63.2958 141.709 62.7903C141.509 62.329 141.223 61.9093 140.868 61.5531C140.517 61.2047 140.1 60.9295 139.642 60.7434C139.183 60.5572 138.693 60.4639 138.198 60.4687H138.227ZM151.827 59.2601C152.623 59.253 153.412 59.4057 154.148 59.7092C154.845 59.9971 155.468 60.4398 155.968 61.0037L155.085 61.9209C154.66 61.4922 154.159 61.1456 153.608 60.8986C153.034 60.6506 152.414 60.5268 151.788 60.5356C151.2 60.53 150.616 60.6454 150.074 60.8747C149.554 61.0974 149.084 61.4223 148.693 61.8301C148.297 62.2424 147.986 62.7296 147.781 63.2632C147.342 64.4304 147.342 65.717 147.781 66.8842C147.98 67.4175 148.286 67.9044 148.68 68.3151C149.075 68.7258 149.549 69.0517 150.074 69.2726C150.616 69.502 151.2 69.6174 151.788 69.6118C152.423 69.6185 153.052 69.4882 153.632 69.2296C154.183 68.982 154.686 68.6392 155.118 68.2169L155.968 69.1484C155.462 69.7105 154.837 70.1527 154.139 70.443C153.404 70.7469 152.617 70.8997 151.822 70.892C151.026 70.9018 150.237 70.7523 149.5 70.4525C148.818 70.175 148.199 69.7612 147.681 69.2363C147.164 68.7115 146.759 68.0867 146.491 67.4001C145.925 65.9172 145.925 64.2779 146.491 62.7951C146.758 62.1073 147.162 61.4813 147.68 60.9556C148.197 60.4298 148.817 60.0154 149.5 59.7378C150.227 59.4192 151.01 59.2487 151.803 59.2363L151.827 59.2601ZM160.545 64.1804H162.369L167.099 59.4417H168.818L163.468 64.7441L168.914 70.6771H167.185L162.369 65.4224H160.545V70.6771H159.159V53.48H160.521L160.545 64.1804ZM87.2135 47.9913V40.8259C87.2135 38.1221 85.489 36.3021 82.7136 36.2782C81.9232 36.2271 81.1335 36.3889 80.4269 36.7469C79.7203 37.1048 79.1226 37.6457 78.6962 38.3132C78.3076 37.6655 77.7515 37.1346 77.0865 36.7765C76.4215 36.4183 75.6723 36.2462 74.9176 36.2782C74.2605 36.2465 73.6065 36.3866 73.0201 36.6848C72.4337 36.9831 71.9352 37.4291 71.5738 37.9788V36.5457H69.085V47.9817H71.5976V41.6523C71.5976 39.6651 72.6963 38.6141 74.3969 38.6141C76.0975 38.6141 76.8857 39.6889 76.8857 41.6284V47.9913H79.3984V41.6523C79.3984 39.6651 80.5449 38.6141 82.1977 38.6141C83.8505 38.6141 84.7104 39.6889 84.7104 41.6284V47.9913H87.2135ZM124.393 36.5552H120.327V33.0872H117.839V36.5552H115.517V38.8291H117.839V44.0455C117.839 46.7015 118.866 48.2827 121.808 48.2827C122.907 48.2862 123.985 47.9799 124.918 47.399L124.202 45.2684C123.534 45.6662 122.776 45.888 121.999 45.9133C120.757 45.9133 120.347 45.149 120.347 44.0025V38.8291H124.412L124.393 36.5552ZM145.617 36.2686C145.01 36.2509 144.409 36.3974 143.879 36.6925C143.348 36.9876 142.907 37.4204 142.602 37.9453V36.5552H140.137V47.9913H142.626V41.5806C142.626 39.6698 143.438 38.638 145.067 38.638C145.6 38.6303 146.129 38.7277 146.625 38.9246L147.389 36.5791C146.82 36.3757 146.221 36.2707 145.617 36.2686ZM113.539 37.4677C112.13 36.6305 110.51 36.216 108.872 36.2734C105.977 36.2734 104.095 37.6587 104.095 39.9326C104.095 41.8004 105.481 42.9468 108.041 43.3051L109.211 43.4723C110.573 43.6634 111.223 44.0216 111.223 44.6665C111.223 45.5503 110.315 46.0518 108.614 46.0518C107.242 46.0954 105.896 45.6746 104.793 44.8576L103.622 46.797C105.072 47.8104 106.808 48.3312 108.576 48.2827C111.877 48.2827 113.793 46.7254 113.793 44.5519C113.793 42.5408 112.283 41.4899 109.799 41.1316L108.629 40.9644C107.554 40.8211 106.689 40.6061 106.689 39.8418C106.689 39.0058 107.501 38.4995 108.867 38.4995C110.119 38.518 111.346 38.855 112.431 39.4787L113.539 37.4677ZM180.197 36.2734C179.59 36.2557 178.99 36.4022 178.459 36.6973C177.929 36.9924 177.488 37.4252 177.183 37.9501V36.5552H174.718V47.9913H177.207V41.5806C177.207 39.6698 178.019 38.638 179.648 38.638C180.181 38.6303 180.71 38.7277 181.205 38.9246L181.969 36.5791C181.4 36.3757 180.801 36.2707 180.197 36.2686V36.2734ZM148.134 42.2781C148.134 45.7461 150.551 48.2827 154.234 48.2827C155.728 48.3566 157.195 47.8692 158.347 46.9165L157.153 44.9054C156.286 45.5593 155.23 45.9146 154.143 45.9181C152.156 45.9181 150.699 44.4563 150.699 42.2589C150.699 40.0615 152.161 38.6237 154.143 38.5998C155.225 38.6115 156.274 38.9717 157.134 39.6268L158.328 37.6157C157.176 36.663 155.709 36.1756 154.215 36.2495C150.532 36.2495 148.115 38.7861 148.115 42.2542L148.134 42.2781ZM171.436 42.2781V36.5457H168.952V37.9358C168.528 37.3882 167.978 36.9503 167.35 36.6586C166.722 36.3669 166.033 36.2299 165.341 36.2591C162.135 36.2591 159.608 38.7718 159.608 42.2637C159.608 45.7557 162.121 48.2684 165.341 48.2684C166.033 48.2976 166.722 48.1606 167.35 47.8689C167.978 47.5771 168.528 47.1392 168.952 46.5916V47.977H171.441L171.436 42.2781ZM162.178 42.2781C162.178 40.267 163.492 38.6189 165.646 38.6189C167.705 38.6189 169.091 40.2001 169.091 42.2781C169.091 44.356 167.705 45.9372 165.646 45.9372C163.492 45.9372 162.178 44.2844 162.178 42.2781ZM132.169 36.2686C128.826 36.2686 126.475 38.7097 126.475 42.2733C126.475 45.9085 128.916 48.2779 132.337 48.2779C134.044 48.3377 135.714 47.7663 137.028 46.6728L135.81 44.8289C134.859 45.5891 133.682 46.0095 132.466 46.0232C130.861 46.0232 129.404 45.2827 129.045 43.2239H137.539C137.563 42.9134 137.587 42.6029 137.587 42.2685C137.587 38.7049 135.36 36.2639 132.155 36.2639L132.169 36.2686ZM132.122 38.4947C133.727 38.4947 134.754 39.4979 135.017 41.2701H129.06C129.322 39.6173 130.326 38.4947 132.098 38.4947H132.122ZM194.547 42.2733V31.9646H192.058V37.9453C191.634 37.3978 191.085 36.9598 190.456 36.6681C189.828 36.3764 189.139 36.2394 188.447 36.2686C185.241 36.2686 182.714 38.7813 182.714 42.2733C182.714 45.7652 185.227 48.2779 188.447 48.2779C189.139 48.3071 189.828 48.1701 190.456 47.8784C191.085 47.5867 191.634 47.1487 192.058 46.6012V47.9865H194.547V42.2733ZM197.456 46.9356C197.555 46.9352 197.652 46.9547 197.743 46.9929C197.83 47.0302 197.91 47.0837 197.977 47.1505C198.044 47.2162 198.097 47.294 198.135 47.3798C198.173 47.4688 198.193 47.5647 198.193 47.6617C198.193 47.7586 198.173 47.8545 198.135 47.9435C198.097 48.0293 198.044 48.1071 197.977 48.1728C197.909 48.2394 197.83 48.2929 197.743 48.3305C197.652 48.369 197.555 48.3886 197.456 48.3878C197.311 48.3896 197.168 48.3484 197.045 48.2694C196.923 48.1904 196.827 48.077 196.768 47.9435C196.73 47.8544 196.711 47.7586 196.711 47.6617C196.711 47.5648 196.73 47.4689 196.768 47.3798C196.843 47.2044 196.984 47.0655 197.16 46.9929C197.246 46.957 197.339 46.9375 197.432 46.9356H197.456ZM197.456 48.2254C197.532 48.2265 197.606 48.2119 197.676 48.1824C197.742 48.1539 197.802 48.1134 197.853 48.0629C197.959 47.9564 198.018 47.8121 198.018 47.6617C198.018 47.5113 197.959 47.367 197.853 47.2604C197.802 47.2097 197.742 47.1692 197.676 47.141C197.606 47.1117 197.532 47.0971 197.456 47.098C197.379 47.097 197.303 47.1116 197.232 47.141C197.146 47.1774 197.071 47.234 197.013 47.306C196.955 47.378 196.915 47.4631 196.897 47.554C196.879 47.6449 196.884 47.7387 196.91 47.8274C196.937 47.9162 196.985 47.997 197.05 48.0629C197.102 48.114 197.164 48.1546 197.232 48.1824C197.295 48.2105 197.363 48.2267 197.432 48.2301L197.456 48.2254ZM197.499 47.3177C197.571 47.3127 197.642 47.333 197.7 47.3751C197.723 47.3938 197.742 47.4179 197.755 47.4453C197.767 47.4727 197.773 47.5026 197.771 47.5327C197.772 47.5585 197.768 47.5843 197.758 47.6082C197.748 47.6321 197.733 47.6536 197.714 47.6712C197.67 47.7102 197.615 47.7337 197.556 47.7381L197.776 47.9913H197.604L197.399 47.7381H197.332V47.9913H197.189V47.3177H197.499ZM197.332 47.4419V47.6235H197.499C197.529 47.6321 197.56 47.6321 197.59 47.6235C197.601 47.6161 197.61 47.6061 197.615 47.5944C197.621 47.5827 197.624 47.5697 197.623 47.5566C197.624 47.5435 197.621 47.5305 197.615 47.5188C197.61 47.5071 197.601 47.4971 197.59 47.4897C197.56 47.4811 197.529 47.4811 197.499 47.4897L197.332 47.4419ZM185.289 42.2685C185.289 40.2574 186.603 38.6094 188.757 38.6094C190.816 38.6094 192.201 40.1905 192.201 42.2685C192.201 44.3465 190.816 45.9276 188.757 45.9276C186.603 45.9276 185.289 44.2748 185.289 42.2685ZM101.263 42.2685V36.5361H98.7308V37.9262C98.3064 37.3787 97.7571 36.9407 97.1288 36.649C96.5005 36.3573 95.8115 36.2203 95.1194 36.2495C91.914 36.2495 89.387 38.7622 89.387 42.2542C89.387 45.7461 91.8997 48.2588 95.1194 48.2588C95.8115 48.288 96.5005 48.151 97.1288 47.8593C97.7571 47.5676 98.3064 47.1296 98.7308 46.5821V47.9674H101.22L101.263 42.2685ZM92.0048 42.2685C92.0048 40.2574 93.3185 38.6094 95.4729 38.6094C97.5317 38.6094 98.9171 40.1905 98.9171 42.2685C98.9171 44.3465 97.5317 45.9276 95.4729 45.9276C93.2898 45.9181 91.9761 44.2844 91.9761 42.2733L92.0048 42.2685ZM170.643 70.0895H170.428V70.6532H170.323V70.0895H170.108V69.9892H170.643V70.0895ZM171.465 70.6532H171.341V70.1086L171.145 70.5863H171.03L170.834 70.1086V70.6484H170.729V69.9844H170.892L171.083 70.4621L171.274 69.9844H171.436L171.465 70.6532Z" fill="white"/>
<path d="M37.3277 28.678H22.2803V55.7203H37.3277V28.678Z" fill="#FF5F00"/>
<path d="M23.2549 42.202C23.2529 39.5981 23.8432 37.0278 24.9811 34.6856C26.1191 32.3435 27.7749 30.2909 29.8233 28.6832C27.2863 26.6894 24.2395 25.4496 21.0312 25.1054C17.823 24.7613 14.5826 25.3267 11.6804 26.737C8.77828 28.1474 6.33147 30.3458 4.61963 33.0809C2.90779 35.8161 2 38.9777 2 42.2044C2 45.4311 2.90779 48.5927 4.61963 51.3278C6.33147 54.063 8.77828 56.2614 11.6804 57.6717C14.5826 59.0821 17.823 59.6475 21.0312 59.3033C24.2395 58.9592 27.2863 57.7194 29.8233 55.7256C27.7743 54.1173 26.1181 52.064 24.9801 49.721C23.8421 47.378 23.2522 44.8067 23.2549 42.202Z" fill="#EB001B"/>
<path d="M55.9865 52.8543V52.3002H56.2158V52.1855H55.6426V52.3002H55.8671V52.8543H55.9865ZM57.09 52.8543V52.1855H56.918L56.7174 52.6632L56.5168 52.1855H56.34V52.8543H56.4642V52.3527L56.6505 52.7874H56.7795L56.9658 52.3527V52.8591L57.09 52.8543Z" fill="#F79E1B"/>
<path d="M57.649 42.2014C57.649 45.4284 56.741 48.5902 55.0288 51.3254C53.3167 54.0607 50.8695 56.259 47.967 57.6692C45.0645 59.0793 41.8237 59.6444 38.6153 59.2997C35.4068 58.9551 32.36 57.7146 29.8232 55.7202C31.8708 54.1111 33.5261 52.0579 34.6644 49.7157C35.8026 47.3734 36.3941 44.8032 36.3941 42.1991C36.3941 39.5949 35.8026 37.0247 34.6644 34.6824C33.5261 32.3402 31.8708 30.287 29.8232 28.6779C32.3604 26.6832 35.4076 25.4427 38.6165 25.0982C41.8254 24.7538 45.0664 25.3192 47.9691 26.73C50.8718 28.1407 53.3189 30.3398 55.0307 33.0757C56.7425 35.8117 57.6498 38.9741 57.649 42.2014Z" fill="#F79E1B"/>
</svg>
