<svg width="200" height="95" viewBox="0 0 200 95" fill="none" xmlns="http://www.w3.org/2000/svg">
<path d="M144.428 23.2244C144.395 23.1568 144.361 23.0892 144.361 23.0554C144.059 22.0751 143.655 21.1286 143.185 20.2497C138.01 10.717 123.257 14.2326 108.974 24.1033C108.571 24.3737 108.403 24.9146 108.604 25.3878L112.301 31.2359C112.637 31.8106 113.376 32.0134 113.948 31.6753C114.015 31.6415 114.049 31.6077 114.116 31.5739C125.038 22.8187 137.673 18.1876 142.983 22.2779C143.185 22.4131 143.319 22.6497 143.386 22.8864C143.991 24.5765 144.361 26.3681 144.462 28.1597C144.462 28.1935 144.462 28.1935 144.462 28.2274C144.462 28.4302 144.462 28.6668 144.462 28.8696C144.462 29.0048 144.462 29.1739 144.462 29.3091C144.462 29.3767 144.462 29.4781 144.462 29.5795C143.891 42.8982 125.777 47.4955 114.721 36.5431C115.326 37.1854 115.964 37.76 116.636 38.3009C115.662 37.5234 114.754 36.6783 113.914 35.7656L113.847 35.6642C108.201 28.5316 107.596 24.9822 104.068 21.3314C90.8943 8.45213 72.6127 13.7931 60.6491 27.6527C59.1032 29.3767 57.6918 31.2359 56.482 33.1965C56.2467 33.5346 56.0451 33.9064 55.8099 34.2782L55.9443 34.1092C55.8099 34.3458 55.6754 34.5825 55.5746 34.7853C55.373 35.1233 55.205 35.4614 55.0369 35.8332C52.987 40.0249 52.3821 44.2166 53.6927 47.766C57.1541 57.1634 72.5119 58.7522 88.0042 51.3154C91.8016 49.4899 93.6163 48.5096 96.6072 46.1096C97.6154 45.2983 97.649 42.3235 96.9097 41.2756L94.5237 38.3009C94.1204 37.6586 93.0114 37.591 92.4401 38.0981C91.0287 39.315 90.6926 39.653 89.5836 40.5657C76.0405 51.8224 61.4556 55.5408 56.9861 48.8815C56.9188 48.7801 56.8516 48.6787 56.7844 48.5434C56.7172 48.4082 56.6164 48.3068 56.5492 48.1716C56.6164 48.3068 56.7172 48.4082 56.7844 48.5434C55.6418 46.4814 55.0033 44.1489 54.9697 41.7827C55.0033 38.6727 56.3811 35.0219 58.1959 31.8444C58.2631 31.743 58.3303 31.6415 58.3975 31.5739C62.363 27.8217 70.3611 22.0075 80.7789 23.3258C91.5328 24.678 93.2803 38.5375 109.209 46.718C120.4 52.4647 137.102 49.828 143.924 41.208L143.79 41.377C147.453 36.7797 148.394 30.6612 144.428 23.2244ZM54.5328 38.0643C54.5664 37.8276 54.6 37.6248 54.6673 37.3882C54.6 37.6248 54.5664 37.8614 54.5328 38.0643Z" fill="white"/>
<path d="M66.4491 63.2414C66.3595 63.2034 66.2668 63.1739 66.172 63.1534C65.4223 62.9535 63.5643 62.8891 62.9645 63.3973L62.9319 63.4278C62.8318 63.5232 62.7509 63.6384 62.6939 63.7665C60.9519 66.1696 59.3412 68.6726 57.8696 71.2636L53.381 63.7835L53.3647 63.7462C53.3051 63.617 53.2208 63.5017 53.117 63.4074L53.0876 63.3803C52.5661 62.9298 51.0047 62.9433 50.1539 63.0958C49.9521 63.1178 49.7538 63.1668 49.5639 63.2414C49.3987 63.3139 49.2573 63.4348 49.1571 63.5895C49.057 63.7441 49.0024 63.9257 49 64.1121V79.9024C49 80.2174 49.1402 80.7696 50.079 80.9187C50.3912 80.9625 50.706 80.9829 51.021 80.9797C51.6729 80.9797 53.0453 80.9797 53.0453 79.9024V70.8063C53.3386 71.2873 53.896 72.2291 54.5121 73.4114C55.3683 75.0579 55.9431 76.1341 56.2365 76.64L56.4093 76.9787C56.5632 77.2215 56.7588 77.4328 56.9862 77.6021C57.4769 77.9038 58.0603 77.9984 58.6161 77.8663C58.7535 77.8279 58.8821 77.7611 58.9942 77.6698C59.2435 77.4933 59.4637 77.2759 59.6461 77.0262L60.0373 76.3114C60.2264 75.9703 60.6697 75.1166 61.3672 73.7502C62.0648 72.3838 62.5951 71.389 62.958 70.7656C62.958 70.7656 62.958 72.4764 62.958 72.5713V79.9227C62.958 81 64.3238 81 64.979 81C65.6342 81 67 81 67 79.9227V64.1256C67.0012 63.9385 66.9497 63.755 66.8518 63.5979C66.754 63.4407 66.6139 63.3168 66.4491 63.2414V63.2414Z" fill="white"/>
<path d="M71.4983 70C70.1802 70 70 70.2388 70 70.4977V80.5057C70 80.7612 70.1802 81 71.4983 81C72.8165 81 73 80.7612 73 80.5057V70.491C73 70.2388 72.8065 70 71.4983 70Z" fill="white"/>
<path d="M71.9984 81C71.3537 81 70 81 70 79.9453V70.0547C70 69 71.3505 69 71.9984 69C72.6462 69 74 69 74 70.0547V79.9254C74 81 72.6495 81 71.9984 81ZM71.0991 79.796C71.696 79.8933 72.304 79.8933 72.9009 79.796V70.2106C72.304 70.1133 71.696 70.1133 71.0991 70.2106V79.796Z" fill="white"/>
<path d="M86.2745 64H78.2689C77.4291 64.0309 77 64.1166 77 64.5009V80.4957C77 80.7564 77.1667 81 78.3801 81C79.5934 81 79.7632 80.7564 79.7632 80.4957V73.8878H85.4841C85.9256 73.8878 86.2096 73.332 86.2096 72.4708C86.2096 71.6097 85.9256 71.0505 85.4841 71.0505H79.7632V66.8476H86.2745C86.716 66.8476 87 66.2918 87 65.4307C87 64.5695 86.716 64 86.2745 64Z" fill="white"/>
<path d="M78.0704 81C77.4003 81 76 81 76 79.98V65.0136C76 64.0513 77.1625 64.0225 77.9296 64H86.6399C87.2663 64 88 64.4908 88 65.8764C88 67.2621 87.2663 67.7496 86.6399 67.7496H80.1373V70.5915H85.7755C86.402 70.5915 87.1357 71.0823 87.1357 72.4679C87.1357 73.8536 86.402 74.3411 85.7755 74.3411H80.1373V79.9704C80.1373 81 78.7404 81 78.0704 81ZM77.1424 79.8357C77.756 79.9297 78.3814 79.9297 78.995 79.8357V73.2442H85.7755C85.8358 73.2249 85.9933 72.994 85.9933 72.4647C85.9933 71.9355 85.8359 71.7045 85.7789 71.6821H78.995V66.6526H86.6332C86.67 66.6526 86.8509 66.4441 86.8509 65.8732C86.8509 65.3023 86.67 65.1034 86.6365 65.0906H77.9464C77.6768 65.0924 77.4078 65.116 77.1424 65.1611V79.8357Z" fill="white"/>
<path d="M108.621 64C107.406 64 107.24 64.2639 107.24 64.521V75.0719L100.695 64.2982L100.665 64.2571C100.356 63.9143 98.6476 63.9726 98.2591 64.1542C98.1864 64.1768 98.1221 64.2245 98.0755 64.2905C98.0289 64.3565 98.0025 64.4372 98 64.521V80.4604C98 80.6284 98 80.9815 99.3786 80.9815C100.757 80.9815 100.76 80.6387 100.76 80.4604V69.9301L107.308 80.6798C107.462 80.9163 108.029 80.9986 108.581 80.9986C108.945 81.0084 109.309 80.9669 109.664 80.8752C109.941 80.7792 110 80.601 110 80.4707V64.5313C110 64.2639 109.837 64 108.621 64Z" fill="white"/>
<path d="M108.921 80.9998C107.633 80.9998 107.266 80.6983 107.094 80.4738L101.088 71.8794V79.9607C101.088 80.9934 99.708 80.9934 99.0426 80.9934C98.3772 80.9934 97 80.9934 97 79.9607V65.0487C97.0018 64.862 97.0628 64.6803 97.1747 64.5283C97.2866 64.3763 97.444 64.2613 97.6257 64.1988C98.0494 64.0289 100.205 63.8204 100.82 64.4137L100.923 64.5356L106.912 73.1108V65.0358C106.912 64 108.345 64 108.957 64C109.57 64 111 64 111 65.0358V79.9479C110.993 80.1568 110.916 80.3577 110.78 80.5203C110.644 80.6829 110.458 80.7983 110.249 80.8491C109.814 80.9532 109.368 81.0038 108.921 80.9998ZM107.984 79.7972C108.287 79.8863 108.605 79.9232 108.921 79.9062C109.242 79.9115 109.562 79.8857 109.878 79.8293V65.1705C109.272 65.0676 108.653 65.0676 108.047 65.1705V76.6801L100.029 65.193C99.4019 65.0771 98.7584 65.0706 98.1289 65.1737V79.8132C98.7345 79.9161 99.354 79.9161 99.9596 79.8132V68.3069L107.984 79.7972Z" fill="white"/>
<path d="M115.5 64C114.183 64 114 64.2435 114 64.5076V80.4959C114 80.7565 114.183 81 115.5 81C116.817 81 117 80.7565 117 80.4959V64.5076C116.997 64.2435 116.833 64 115.5 64Z" fill="white"/>
<path d="M116 81C115.355 81 114 81 114 79.9804V65.0196C114 64 115.352 64 116 64C116.648 64 118 64 118 65.0196V79.9676C117.997 81 116.645 81 116 81ZM115.097 79.8361C115.695 79.9301 116.305 79.9301 116.903 79.8361V65.1639C116.305 65.0698 115.695 65.0698 115.097 65.1639V79.8361Z" fill="white"/>
<path d="M92.5 64C91.1667 64 91 64.2435 91 64.5076V80.4959C91 80.7565 91.18 81 92.5 81C93.82 81 94 80.7565 94 80.4959V64.5076C94 64.2435 93.8167 64 92.5 64Z" fill="white"/>
<path d="M92 81C91.3548 81 90 81 90 79.9804V65.0196C90 64 91.3516 64 92 64C92.6484 64 94 64 94 65.0196V79.9676C94 81 92.6484 81 92 81ZM91.0968 79.8361C91.6952 79.9301 92.3048 79.9301 92.9032 79.8361V65.1639C92.3048 65.0698 91.6952 65.0698 91.0968 65.1639V79.8361Z" fill="white"/>
<path d="M132.548 64H121.452C121.22 64 121 64.1853 121 65.5336C121 66.8819 121.22 67.0672 121.452 67.0672H125.636V80.4957C125.636 80.7564 125.801 81 127.002 81C128.202 81 128.367 80.7564 128.367 80.4957V67.0672H132.548C132.783 67.0672 133 66.8819 133 65.5336C133 64.1853 132.783 64 132.548 64Z" fill="white"/>
<path d="M127.007 81C126.351 81 124.979 81 124.979 79.9802V67.9606H121.043C120 67.9606 120 66.6233 120 65.9819C120 65.3405 120 64 121.043 64H132.954C134 64 134 65.3405 134 65.9819C134 66.6233 134 67.9606 132.954 67.9606H129.017V79.9674C129.03 81 127.663 81 127.007 81ZM126.098 79.8359C126.7 79.9299 127.313 79.9299 127.915 79.8359V66.8702H132.826C132.922 66.2817 132.922 65.682 132.826 65.0936H121.197C121.101 65.682 121.101 66.2817 121.197 66.8702H126.098V79.8359Z" fill="white"/>
<path d="M149.645 64.1422C149.105 63.9432 147.06 63.8917 146.676 64.3994L142.993 70.4407L139.301 64.4063C138.943 63.9054 136.912 63.9432 136.371 64.1387C136.065 64.2451 136 64.4269 136 64.5641V64.6465L141.535 73.7409V80.4202C141.535 80.5643 141.535 81 143 81C144.465 81 144.465 80.5643 144.465 80.4202V73.7409L150 64.6499V64.5641C150 64.4303 149.938 64.2519 149.645 64.1422Z" fill="white"/>
<path d="M143.498 81C143.001 81 141.492 81 141.492 79.9122V73.8153L136 65.3086V65.0711C136.004 64.8581 136.079 64.6523 136.214 64.4863C136.348 64.3202 136.534 64.2031 136.743 64.1534C137.273 63.9769 139.667 63.7908 140.274 64.5962L140.297 64.6283L143.498 69.5572L146.729 64.577C147.375 63.7844 149.785 63.9865 150.283 64.163C150.485 64.2171 150.664 64.3348 150.794 64.4985C150.923 64.6622 150.995 64.8631 151 65.0711V65.3118L145.508 73.8185V79.9154C145.501 81 143.993 81 143.498 81ZM142.594 79.8063C143.188 79.9389 143.805 79.9389 144.4 79.8063V73.5041L149.795 65.161C149.233 65.0423 147.892 65.0776 147.588 65.2701L143.508 71.582L139.408 65.2765C139.105 65.0872 137.793 65.0519 137.215 65.1674L142.594 73.5105V79.8063Z" fill="white"/>
<path d="M72.137 64H70.863C69.8341 64 69 64.6627 69 65.4802V66.5198C69 67.3373 69.8341 68 70.863 68H72.137C73.1659 68 74 67.3373 74 66.5198V65.4802C74 64.6627 73.1659 64 72.137 64Z" fill="white"/>
</svg>
