<svg width="200" height="95" viewBox="0 0 200 95" fill="none" xmlns="http://www.w3.org/2000/svg">
<g clip-path="url(#clip0)">
<path d="M35.3234 47.0432C35.3234 51.3245 35.3234 55.6059 35.3234 59.8872C35.3234 60.6088 35.3234 61.3304 35.3234 62.0519C35.3234 62.9178 34.9028 63.3989 33.9626 63.3989C32.2306 63.3748 30.4987 63.3508 28.7667 63.3748C28.2224 63.3748 28.0245 63.1583 28.0245 62.6773C28.0245 62.2684 27.9997 61.8836 27.9997 61.4747C27.9997 53.2968 27.975 45.119 27.975 36.9411C27.975 33.4535 30.5729 31.7217 33.9873 32.8522C35.5214 33.3573 36.5853 34.3675 37.3028 35.7385C39.0348 39.0578 40.7667 42.377 42.5234 45.6962C42.9193 46.4659 43.3894 47.1875 43.8843 48.0293C44.2554 47.5002 44.1317 47.0672 44.1317 46.6583C44.1564 42.7378 44.1317 38.7932 44.1564 34.8726C44.1564 33.2611 44.3049 33.1408 45.9131 33.1408C47.5214 33.1408 49.1296 33.213 50.7379 33.1168C51.777 33.0687 52.0245 33.4535 51.9997 34.3435C51.975 35.7866 52.0245 37.2298 52.0245 38.6729C52.0245 45.119 52.0245 51.5891 52.0245 58.0352C52.0245 58.9251 52.0245 59.791 51.8018 60.6569C51.3564 62.4368 50.2183 63.5432 48.3626 63.8799C46.6059 64.1926 45.1709 63.4951 44.2306 62.076C43.3399 60.7771 42.5977 59.3821 41.8306 58.0111C40.1482 54.9805 38.5152 51.9258 36.8327 48.8952C36.4616 48.2458 36.041 47.6204 35.6203 46.971C35.5214 46.971 35.4224 47.0191 35.3234 47.0432Z" fill="#E80088"/>
<path d="M91.1176 63.9035C84.7341 63.8313 79.3898 58.4435 79.4392 52.0937C79.464 45.6236 84.9568 40.308 91.464 40.3801C97.8475 40.4523 103.266 45.9603 103.192 52.3102C103.093 58.66 97.5753 63.9756 91.1176 63.9035ZM86.8372 52.1899C86.8619 54.8116 88.7918 56.7839 91.3403 56.7599C93.864 56.7358 95.7197 54.6913 95.6702 52.0456C95.6207 49.496 93.765 47.6199 91.3155 47.6199C88.7671 47.5718 86.8372 49.5682 86.8372 52.1899Z" fill="#E90088"/>
<path d="M68.8496 47.019C66.9197 45.7442 64.965 45.9607 63.4558 47.4519C61.3527 49.5445 61.2537 53.5372 63.2826 55.726C64.965 57.554 67.4145 57.8667 69.5176 56.4716C70.7795 55.6298 71.8434 54.5715 72.8826 53.465C73.5506 52.7435 74.1197 52.4789 75.0599 53.0802C76.0496 53.7056 77.163 54.1866 78.2269 54.6917C78.7712 54.9322 78.8207 55.1968 78.6228 55.726C76.6929 60.8973 70.5073 64.5051 64.7671 63.7595C59.1259 63.0379 54.9197 58.6604 54.3753 52.984C53.9052 48.0051 56.9238 43.2668 61.8475 41.2223C66.5485 39.2741 71.8434 40.5248 75.3073 44.3973C77.8805 47.2836 77.8805 47.3557 74.6393 49.4964C72.0413 51.3003 69.4186 53.0321 66.8207 54.812C66.2516 55.1968 65.9795 55.2209 65.6083 54.5955C64.965 53.5132 64.2722 52.4789 63.53 51.4687C63.0846 50.8674 63.2826 50.6028 63.8269 50.2661C65.4846 49.2318 67.1176 48.1494 68.8496 47.019Z" fill="#E80088"/>
<path d="M141.74 48.799C141.74 50.9156 141.814 53.0563 141.716 55.1729C141.542 58.901 139.86 61.7873 136.198 63.1583C132.338 64.6015 128.553 64.2888 125.212 61.7152C123.382 60.2961 122.54 58.2997 122.243 56.0629C122.144 55.2691 122.095 54.4754 122.07 53.6576C122.021 49.9295 121.996 46.2254 121.971 42.4972C121.971 41.0782 122.169 40.8857 123.579 40.8857C124.94 40.8857 126.301 40.8857 127.662 40.8857C129.295 40.8617 129.518 41.0782 129.518 42.6656C129.518 46.1532 129.493 49.6408 129.493 53.1284C129.493 53.7538 129.518 54.4273 129.691 55.0286C129.963 56.0388 130.705 56.6642 131.843 56.6882C133.031 56.7123 133.773 56.1591 134.169 55.0767C134.367 54.4994 134.367 53.8981 134.367 53.2968C134.367 49.737 134.367 46.1532 134.367 42.5935C134.367 41.0782 134.59 40.8617 136.173 40.8617C137.608 40.8617 139.068 40.9098 140.503 40.8617C141.592 40.8136 141.988 41.2946 141.963 42.2808C141.938 44.4455 141.963 46.6102 141.963 48.7749C141.864 48.799 141.814 48.799 141.74 48.799Z" fill="#E90088"/>
<path d="M158.887 50.2179C158.887 46.6821 158.862 43.1705 158.887 39.6348C158.911 34.6559 161.287 31.9861 166.383 31.3126C167.967 31.0961 169.6 31.1202 171.183 30.9999C171.753 30.9518 172 31.1202 171.975 31.7215C171.95 33.5735 171.926 35.4015 171.975 37.2536C172 37.927 171.703 38.0473 171.084 38.0473C170.219 38.0233 169.353 38.0473 168.487 38.0954C167.274 38.1676 166.779 38.8651 166.656 39.9715C166.581 40.5728 166.804 40.7652 167.398 40.7412C168.14 40.7171 168.882 40.7412 169.625 40.7171C170.491 40.6931 170.911 41.0539 170.911 41.9198C170.887 43.411 170.887 44.8782 170.911 46.3695C170.936 47.2113 170.59 47.6683 169.674 47.6202C169.625 47.6202 169.6 47.6202 169.55 47.6202C168.586 47.6924 167.348 47.1872 166.705 47.8607C166.136 48.462 166.507 49.6406 166.507 50.5546C166.482 54.2827 166.507 58.0109 166.507 61.739C166.507 63.2062 166.284 63.4227 164.8 63.3986C163.266 63.3986 161.757 63.3505 160.223 63.3986C159.159 63.4467 158.763 63.0378 158.763 62.0036C158.812 58.083 158.788 54.1384 158.788 50.2179C158.862 50.2179 158.887 50.2179 158.887 50.2179Z" fill="#E90088"/>
<path d="M109.451 63.3748C108.091 63.3748 106.73 63.3507 105.369 63.3748C104.454 63.3988 103.983 63.0621 104.008 62.124C104.033 60.8012 104.033 59.4783 104.008 58.1554C104.008 57.2895 104.404 56.9287 105.295 56.9287C106.977 56.9528 108.66 56.9287 110.367 56.9287C111.134 56.9287 112.099 56.7844 112.272 56.135C112.421 55.5818 111.579 55.0526 110.936 54.7399C110.045 54.331 109.105 53.9943 108.239 53.5614C105.27 52.0942 103.786 49.256 104.404 46.2013C105.023 43.1707 107.373 41.2465 110.788 40.9819C113.089 40.8136 115.39 40.8617 117.691 40.9338C118.73 40.9579 119.175 41.4389 119.15 42.4251C119.126 43.4593 119.126 44.4936 119.15 45.5519C119.175 46.5862 118.631 47.0191 117.641 47.0191C116.404 47.0431 115.167 47.0431 113.93 47.0431C113.608 47.0431 113.262 47.0431 112.94 47.1153C112.445 47.2115 111.901 47.3558 111.802 47.885C111.728 48.3901 112.198 48.6306 112.618 48.8471C113.905 49.4724 115.216 50.0497 116.503 50.6991C120.165 52.6233 121.402 55.6058 120.016 59.1175C119.051 61.5708 117.122 62.8216 114.524 63.2064C112.816 63.471 111.134 63.3507 109.451 63.3748Z" fill="#E80088"/>
<path d="M150.994 43.4834C152.404 41.6795 154.136 41.0781 156.116 40.9338C157.08 40.8617 157.6 41.2225 157.575 42.2327C157.551 43.6758 157.551 45.119 157.575 46.5621C157.575 47.4521 157.204 47.9091 156.239 47.885C155.843 47.885 155.423 47.9572 155.002 48.0293C152.8 48.3901 151.959 49.2319 151.909 51.3726C151.835 54.6919 151.86 58.0111 151.835 61.3544C151.835 63.3267 151.711 63.4229 149.757 63.3748C148.346 63.3508 146.961 63.3508 145.551 63.3748C144.586 63.3989 144.116 63.0381 144.116 62.0519C144.14 55.4375 144.14 48.823 144.116 42.2086C144.116 41.2225 144.561 40.8376 145.551 40.8857C146.664 40.9338 147.777 40.9338 148.891 40.8857C150.647 40.8376 150.895 41.0541 150.895 42.7618C150.92 42.9302 150.944 43.0745 150.994 43.4834Z" fill="#E80088"/>
</g>
<defs>
<clipPath id="clip0">
<rect width="144" height="33" fill="white" transform="translate(28 31)"/>
</clipPath>
</defs>
</svg>
