<svg width="200" height="95" viewBox="0 0 200 95" fill="none" xmlns="http://www.w3.org/2000/svg">
<path d="M76.2929 45.6416C75.8397 45.6416 75.4899 45.515 75.2449 45.2602C74.9999 45.0055 74.8774 44.6514 74.8774 44.1978V27.689C74.8774 27.2163 75.004 26.8581 75.2585 26.6129C75.5131 26.3677 75.8669 26.2451 76.3202 26.2451H82.826C84.8948 26.2451 86.4913 26.7586 87.6169 27.7843C88.7425 28.8113 89.3046 30.2497 89.3046 32.1022C89.3046 33.9547 88.7425 35.4217 87.6169 36.4474C86.4913 37.4744 84.8948 37.9865 82.826 37.9865H77.7084V44.1978C77.7084 44.6514 77.59 45.0055 77.3546 45.2602C77.1191 45.515 76.7652 45.6416 76.2929 45.6416ZM77.7084 35.7254H82.4177C83.7788 35.7254 84.8091 35.4217 85.5073 34.8128C86.2055 34.2053 86.5553 33.3009 86.5553 32.1022C86.5553 30.9035 86.2055 30.0277 85.5073 29.4188C84.8091 28.8113 83.7788 28.5062 82.4177 28.5062H77.7084V35.7254Z" fill="white"/>
<path d="M93.8781 45.4509C93.3882 45.4509 93.0111 45.3188 92.7485 45.0559C92.4858 44.793 92.3538 44.4157 92.3538 43.9254V27.7707C92.3538 27.2803 92.4844 26.903 92.7485 26.6401C93.0111 26.3772 93.3882 26.2451 93.8781 26.2451H103.814C104.195 26.2451 104.485 26.3405 104.685 26.5312C104.885 26.7219 104.984 26.9984 104.984 27.3621C104.984 27.7434 104.885 28.0336 104.685 28.2338C104.485 28.434 104.195 28.5335 103.814 28.5335H95.0759V34.554H103.215C103.614 34.554 103.909 34.6535 104.1 34.8537C104.29 35.0539 104.386 35.3345 104.386 35.6982C104.386 36.0796 104.29 36.3656 104.1 36.5563C103.909 36.747 103.614 36.8424 103.215 36.8424H95.0759V43.1626H103.814C104.195 43.1626 104.485 43.262 104.685 43.4622C104.885 43.6625 104.984 43.9444 104.984 44.3068C104.984 44.6882 104.885 44.9742 104.685 45.1649C104.485 45.3556 104.195 45.4509 103.814 45.4509H93.8781Z" fill="white"/>
<path d="M109.721 45.6419C109.303 45.6419 108.976 45.5234 108.741 45.2877C108.505 45.0521 108.387 44.7157 108.387 44.2798V27.4713C108.387 27.0177 108.5 26.6676 108.727 26.4225C108.954 26.1773 109.258 26.0547 109.639 26.0547C109.966 26.0547 110.215 26.1133 110.387 26.2318C110.56 26.3503 110.764 26.5641 111 26.872L122.215 41.6645H121.535V27.3896C121.535 26.9728 121.648 26.6458 121.875 26.4088C122.102 26.1732 122.423 26.0547 122.841 26.0547C123.259 26.0547 123.603 26.1732 123.821 26.4088C124.039 26.6445 124.148 26.9714 124.148 27.3896V44.307C124.148 44.7252 124.043 45.0521 123.835 45.2877C123.625 45.5234 123.349 45.6419 123.004 45.6419C122.678 45.6419 122.41 45.5779 122.201 45.4512C121.992 45.3245 121.77 45.1066 121.535 44.7974L110.374 30.0321H111V44.2798C111 44.7157 110.891 45.0521 110.673 45.2877C110.456 45.5234 110.138 45.6419 109.721 45.6419Z" fill="white"/>
<path d="M137.595 45.6962C135.509 45.6962 133.748 45.3012 132.314 44.5111C130.881 43.7211 129.796 42.5906 129.061 41.1195C128.326 39.6484 127.959 37.8953 127.959 35.8617C127.959 34.3361 128.173 32.9699 128.599 31.7617C129.025 30.5535 129.643 29.5183 130.45 28.6561C131.257 27.7939 132.246 27.1346 133.417 26.6811C134.587 26.2275 135.917 26 137.405 26C138.494 26 139.565 26.1403 140.617 26.4223C141.669 26.7042 142.631 27.1619 143.502 27.798C143.757 27.9792 143.92 28.1889 143.992 28.4246C144.064 28.6602 144.07 28.9013 144.006 29.1465C143.942 29.3917 143.825 29.6055 143.652 29.7867C143.479 29.9678 143.271 30.0768 143.026 30.1136C142.781 30.1504 142.513 30.0768 142.223 29.8956C141.515 29.4053 140.771 29.0471 139.991 28.8196C139.211 28.5921 138.348 28.479 137.405 28.479C135.989 28.479 134.796 28.7692 133.825 29.3508C132.855 29.9324 132.124 30.7715 131.634 31.8707C131.144 32.9699 130.899 34.2994 130.899 35.8617C130.899 38.2767 131.471 40.1115 132.614 41.3646C133.757 42.6178 135.454 43.2444 137.704 43.2444C138.521 43.2444 139.324 43.1667 140.113 43.0128C140.903 42.8589 141.661 42.6355 142.386 42.3454L141.815 43.762V37.4145H138.303C137.94 37.4145 137.654 37.3192 137.446 37.1285C137.237 36.9378 137.133 36.6694 137.133 36.3248C137.133 35.9802 137.237 35.7214 137.446 35.5484C137.654 35.3754 137.94 35.2896 138.303 35.2896H143.012C143.393 35.2896 143.683 35.3891 143.883 35.5893C144.083 35.7895 144.183 36.0796 144.183 36.461V43.3261C144.183 43.653 144.124 43.9309 144.006 44.157C143.887 44.3845 143.693 44.552 143.421 44.661C142.641 44.9702 141.723 45.2194 140.671 45.4101C139.619 45.6008 138.593 45.6962 137.595 45.6962Z" fill="white"/>
<path d="M156.269 45.6964C154.98 45.6964 153.846 45.5288 152.866 45.1924C151.886 44.856 151.066 44.352 150.403 43.6804C149.74 43.0089 149.236 42.1726 148.892 41.1742C148.548 40.1757 148.375 39.022 148.375 37.7144V27.4713C148.375 26.9986 148.497 26.6445 148.742 26.4088C148.987 26.1732 149.337 26.0547 149.79 26.0547C150.243 26.0547 150.593 26.1732 150.838 26.4088C151.083 26.6445 151.206 26.9986 151.206 27.4713V37.6599C151.206 39.5301 151.637 40.929 152.499 41.8552C153.36 42.7815 154.618 43.2446 156.269 43.2446C157.92 43.2446 159.199 42.7815 160.053 41.8552C160.906 40.929 161.332 39.5301 161.332 37.6599V27.4713C161.332 26.9986 161.455 26.6445 161.7 26.4088C161.945 26.1732 162.285 26.0547 162.72 26.0547C163.156 26.0547 163.519 26.1732 163.755 26.4088C163.99 26.6445 164.109 26.9986 164.109 27.4713V37.7144C164.109 39.4579 163.813 40.9249 163.224 42.114C162.635 43.3031 161.758 44.198 160.597 44.7974C159.436 45.3967 157.993 45.6964 156.269 45.6964Z" fill="white"/>
<path d="M169.878 45.6419C169.425 45.6419 169.075 45.5152 168.83 45.2605C168.585 45.0058 168.462 44.6516 168.462 44.198V27.4985C168.462 27.0259 168.585 26.6676 168.83 26.4225C169.075 26.1773 169.425 26.0547 169.878 26.0547C170.331 26.0547 170.681 26.1773 170.926 26.4225C171.171 26.6676 171.293 27.0259 171.293 27.4985V44.198C171.293 44.6516 171.175 45.0058 170.94 45.2605C170.704 45.5152 170.35 45.6419 169.878 45.6419Z" fill="white"/>
<path d="M177.092 45.6419C176.674 45.6419 176.347 45.5234 176.112 45.2877C175.876 45.0521 175.758 44.7157 175.758 44.2798V27.4713C175.758 27.0177 175.871 26.6676 176.098 26.4225C176.325 26.1773 176.629 26.0547 177.01 26.0547C177.337 26.0547 177.586 26.1133 177.759 26.2318C177.931 26.3503 178.136 26.5641 178.371 26.872L189.586 41.6645H188.906V27.3896C188.906 26.9728 189.019 26.6458 189.246 26.4088C189.473 26.1732 189.794 26.0547 190.212 26.0547C190.63 26.0547 190.974 26.1732 191.192 26.4088C191.41 26.6445 191.519 26.9714 191.519 27.3896V44.307C191.519 44.7252 191.414 45.0521 191.206 45.2877C190.996 45.5234 190.72 45.6419 190.376 45.6419C190.049 45.6419 189.781 45.5779 189.573 45.4512C189.363 45.3245 189.141 45.1066 188.906 44.7974L177.745 30.0321H178.371V44.2798C178.371 44.7157 178.262 45.0521 178.044 45.2877C177.827 45.5234 177.51 45.6419 177.092 45.6419Z" fill="white"/>
<path d="M76.2929 69.6419C75.8397 69.6419 75.4899 69.5152 75.2449 69.2605C74.9999 69.0058 74.8774 68.6516 74.8774 68.198V51.4713C74.8774 50.9986 74.9999 50.6445 75.2449 50.4088C75.4899 50.1732 75.8397 50.0547 76.2929 50.0547C76.7462 50.0547 77.096 50.1732 77.341 50.4088C77.586 50.6445 77.7084 50.9986 77.7084 51.4713V58.8812H77.7629L86.1198 50.7902C86.392 50.5355 86.6506 50.3503 86.8956 50.2318C87.1406 50.1133 87.4169 50.0547 87.7258 50.0547C88.1437 50.0547 88.4472 50.1596 88.6377 50.368C88.8283 50.5764 88.9059 50.827 88.8691 51.1171C88.8324 51.4073 88.6786 51.6892 88.4064 51.9616L79.7228 60.2433L79.7772 58.8539L88.8147 67.5715C89.1413 67.8807 89.3142 68.198 89.3319 68.525C89.3496 68.8519 89.2502 69.1202 89.0324 69.3286C88.8147 69.537 88.5057 69.6419 88.1069 69.6419C87.7435 69.6419 87.4536 69.5697 87.2358 69.4239C87.0181 69.2796 86.7636 69.0698 86.4737 68.7974L77.7629 60.4885H77.7084V68.198C77.7084 68.6516 77.59 69.0071 77.3546 69.2605C77.1191 69.5152 76.7652 69.6419 76.2929 69.6419Z" fill="white"/>
<path d="M93.7961 69.6419C93.3429 69.6419 92.9931 69.5152 92.7481 69.2605C92.5031 69.0058 92.3806 68.6516 92.3806 68.198V51.4985C92.3806 51.0272 92.5031 50.6676 92.7481 50.4225C92.9931 50.1773 93.3429 50.0547 93.7961 50.0547C94.2494 50.0547 94.5991 50.1773 94.8441 50.4225C95.0891 50.6676 95.2116 51.0272 95.2116 51.4985V68.198C95.2116 68.6516 95.0932 69.0071 94.8577 69.2605C94.6223 69.5152 94.2684 69.6419 93.7961 69.6419Z" fill="white"/>
<path d="M101.01 69.6419C100.592 69.6419 100.265 69.5234 100.03 69.2877C99.7942 69.0521 99.6758 68.7157 99.6758 68.2798V51.4713C99.6758 51.0177 99.7887 50.6676 100.016 50.4225C100.243 50.1773 100.547 50.0547 100.928 50.0547C101.255 50.0547 101.504 50.1133 101.677 50.2318C101.849 50.3503 102.054 50.5628 102.289 50.872L113.504 65.6645H112.824V51.3896C112.824 50.9714 112.937 50.6445 113.164 50.4088C113.391 50.1732 113.712 50.0547 114.13 50.0547C114.548 50.0547 114.892 50.1732 115.11 50.4088C115.328 50.6445 115.437 50.9714 115.437 51.3896V68.307C115.437 68.7252 115.332 69.0521 115.124 69.2877C114.914 69.5234 114.638 69.6419 114.294 69.6419C113.967 69.6419 113.699 69.5779 113.491 69.4512C113.281 69.3245 113.059 69.1066 112.824 68.7974L101.663 54.0321H102.289V68.2798C102.289 68.7157 102.18 69.0521 101.962 69.2877C101.745 69.5234 101.427 69.6419 101.01 69.6419Z" fill="white"/>
<path d="M128.884 69.6962C126.798 69.6962 125.037 69.3012 123.603 68.5111C122.17 67.7211 121.085 66.5906 120.351 65.1195C119.616 63.6484 119.248 61.8953 119.248 59.8617C119.248 58.3361 119.462 56.9699 119.888 55.7617C120.314 54.5535 120.932 53.5183 121.739 52.6561C122.546 51.7939 123.535 51.1346 124.706 50.6811C125.876 50.2275 127.206 50 128.694 50C129.783 50 130.854 50.1417 131.906 50.4223C132.958 50.7042 133.92 51.1632 134.791 51.798C135.046 51.9792 135.209 52.1889 135.281 52.4246C135.353 52.6602 135.359 52.9013 135.295 53.1465C135.231 53.3917 135.114 53.6055 134.941 53.7867C134.768 53.9678 134.56 54.0768 134.315 54.1136C134.07 54.1504 133.802 54.0768 133.512 53.8956C132.804 53.4053 132.06 53.0471 131.28 52.8196C130.5 52.5921 129.637 52.479 128.694 52.479C127.278 52.479 126.085 52.7692 125.114 53.3508C124.144 53.9324 123.413 54.7728 122.923 55.8707C122.433 56.9699 122.188 58.2994 122.188 59.8617C122.188 62.2767 122.76 64.1115 123.903 65.3646C125.046 66.6178 126.743 67.2444 128.993 67.2444C129.81 67.2444 130.613 67.1681 131.402 67.0128C132.192 66.8589 132.95 66.6355 133.675 66.3454L133.104 67.762V61.4145H129.592C129.229 61.4145 128.943 61.3192 128.735 61.1285C128.526 60.9378 128.422 60.6694 128.422 60.3248C128.422 59.9802 128.526 59.7214 128.735 59.5484C128.943 59.3754 129.229 59.2896 129.592 59.2896H134.301C134.682 59.2896 134.972 59.3891 135.172 59.5893C135.372 59.7895 135.472 60.0796 135.472 60.461V67.3261C135.472 67.653 135.413 67.9295 135.295 68.157C135.177 68.3845 134.982 68.552 134.71 68.661C133.93 68.9702 133.012 69.2194 131.96 69.4101C130.908 69.6008 129.882 69.6962 128.884 69.6962Z" fill="white"/>
<path d="M56.4423 25.6251C53.6387 18.7015 45.4226 18.9957 44.8828 19.0233C44.8639 19.0233 44.8465 19.0219 44.829 19.0146C44.2645 18.7976 34.8147 15.2579 34.8801 22.1917C34.9412 28.6421 29.7311 29.5289 28.7141 29.641C28.6268 29.6512 28.57 29.7385 28.5991 29.823C28.6079 29.8492 28.6166 29.8754 28.6253 29.9016C28.6064 29.9089 28.5875 29.9147 28.5686 29.922C18.9573 33.5767 14.8529 34.9411 14.2505 35.1376C14.2011 35.1537 14.1661 35.1959 14.1574 35.2468L12.8058 43.6251C12.8043 43.6353 12.8029 43.644 12.8043 43.6542C12.8421 44.2745 14.2258 64.8604 32.2845 77.237C32.2947 77.2443 32.3063 77.2501 32.318 77.2545C32.8781 77.4496 46.6404 82.2066 47.1584 77.7C47.1584 77.6971 47.1584 77.6927 47.1584 77.6898C47.1773 77.4292 47.8887 67.3008 41.3633 57.0995C34.9805 47.1226 44.4522 44.0051 45.1156 43.8013C45.1404 43.794 45.1607 43.7809 45.1782 43.7605C45.3019 43.6178 45.8344 42.9655 46.1777 41.9491C46.1966 41.8938 46.2476 41.8559 46.3043 41.8545C46.8936 41.837 47.4508 41.7992 47.9644 41.7511C48.0386 41.7438 48.1041 41.7977 48.1143 41.872L48.2467 42.9815C48.2583 43.082 48.3718 43.1358 48.4576 43.082L52.7235 40.3897C52.8399 40.3169 52.789 40.1363 52.6522 40.1349C52.5373 40.1334 52.4747 40.0024 52.5446 39.9121C54.5742 37.3203 58.6655 31.1218 56.4423 25.6295V25.6251Z" fill="white"/>
<path d="M46.0645 60.6462C45.791 59.9502 45.596 59.2324 45.4636 58.5029C45.4621 58.4927 45.4578 58.4825 45.4534 58.4723C45.2337 58.0209 45.3545 57.5258 45.1493 57.0817C45.0388 56.8415 45.0897 56.6129 45.2163 56.4425C45.2352 56.4163 45.2468 56.3872 45.2454 56.3552C45.1872 54.4186 45.4636 52.4485 45.8317 50.5906C46.4864 47.2897 47.5791 44.1052 48.4317 40.8553C48.4564 40.7621 48.4957 40.6879 48.5452 40.6267C48.599 40.5612 48.5903 40.4622 48.5175 40.417C47.0408 39.4924 45.3516 38.9639 43.5547 38.9639C37.7728 38.9639 33.0864 44.3994 33.0864 51.1046C33.0864 57.8098 37.7728 63.2453 43.5547 63.2453C44.7274 63.2453 45.8521 63.0181 46.904 62.6061C46.9855 62.574 47.016 62.475 46.968 62.4008C46.6115 61.8562 46.3089 61.2723 46.063 60.6462H46.0645Z" fill="#FF9900"/>
<path d="M49.0604 18.4204L55.1173 7.95712C55.1843 7.84209 55.3603 7.87849 55.3749 8.01099L56.4253 17.3997C56.434 17.4827 56.5141 17.5381 56.5956 17.5191L65.2466 15.4005L65.347 15.3802C65.459 15.3583 65.5478 15.4719 65.4983 15.5753L61.8552 23.2196C61.8202 23.2924 61.8552 23.3798 61.9308 23.4089L70.5644 26.6618C70.6895 26.7098 70.6808 26.8904 70.5513 26.9253L57.7901 30.3864C57.7202 30.4053 57.6475 30.3675 57.6227 30.2991L55.2643 23.6099C55.2555 23.5851 55.241 23.5647 55.2206 23.5487L49.091 18.5981C49.0386 18.5558 49.024 18.4801 49.0575 18.4204H49.0604Z" fill="#FF9900"/>
<path d="M48.458 29.4137C48.5657 29.4428 48.605 29.5782 48.5206 29.651C48.1947 29.9335 47.2315 30.3514 44.5297 29.6888C40.7905 28.7715 38.24 25.625 38.24 25.625C38.24 25.625 36.7792 23.8151 35.9615 21.9819C35.1802 20.2288 35.01 17.9311 34.9969 17.7331C34.9969 17.7229 34.9954 17.7156 34.9925 17.7054C34.8994 17.388 33.2291 11.7967 31.2082 10.9784C31.2082 10.9784 30.2422 10.4585 31.9764 10.2838C33.7093 10.1105 37.738 10.3828 39.8098 14.1992C41.8817 18.0155 45.8944 26.3428 45.8944 26.3428C45.8944 26.3428 47.0569 29.0336 48.4609 29.4137H48.458Z" fill="#FF9900"/>
<path d="M55.1596 25.8273C55.1377 25.8564 55.1305 25.8928 55.1363 25.9292C55.1741 26.1578 55.3123 27.0795 55.2556 28.1483C55.2891 27.0548 55.2498 27.7289 55.1988 28.7613C55.1988 28.7656 55.1988 28.77 55.1988 28.7744C55.1712 28.9855 55.1348 29.1981 55.0868 29.4092C54.9239 30.0586 54.6707 30.5391 54.4423 30.8711C53.7977 31.7331 52.9932 32.1656 52.3879 32.3782C51.8845 32.5354 51.2269 32.6621 50.3874 32.6868C50.1007 32.6956 49.849 32.7334 49.625 32.7917L49.6162 32.7946C49.5711 32.8062 49.5275 32.8193 49.4838 32.8324C49.4751 32.8354 49.4664 32.8368 49.4562 32.8397C49.4489 32.8426 49.4416 32.8456 49.4344 32.847C49.4096 32.8557 49.3834 32.8645 49.3602 32.8732C48.3752 33.227 48.0478 33.9143 47.9474 34.4298C47.9183 34.5579 47.9009 34.7035 47.9038 34.8666C47.8994 34.9219 47.8994 34.9539 47.8994 34.9539C47.8994 34.9539 47.9038 34.9714 47.9111 35.002C47.9125 35.018 47.914 35.0355 47.9169 35.0515C47.9183 35.0704 47.9212 35.0821 47.9212 35.0821C47.9707 35.4592 48.1351 35.9091 48.5178 36.4173H48.5192C48.5905 36.528 48.6676 36.6357 48.7549 36.7362C49.3645 37.4526 50.4557 39.0688 50.5343 39.1838C50.5372 39.1882 50.5401 39.1926 50.543 39.1984L50.6958 39.5012C50.7322 39.5726 50.8195 39.5988 50.8879 39.558C51.7332 39.0615 56.5083 35.9746 56.4443 29.6597C56.4443 29.6553 56.4443 29.6509 56.4443 29.6451C56.4239 29.4442 55.9307 24.7949 55.1639 25.8244L55.1596 25.8273Z" fill="#FF9900"/>
<path d="M44.9311 38.5341C44.5805 37.9225 40.6754 31.7066 27.6406 33.5019C27.5432 33.515 27.4617 33.4276 27.4864 33.3315C27.7294 32.3866 29.0636 28.4027 34.2388 29.0361C34.2461 29.0361 34.2504 29.0376 34.2577 29.0391C34.5661 29.1191 42.9932 31.3251 45.5699 35.4123C47.9865 39.2446 45.436 38.7074 45.0141 38.5967C44.9777 38.588 44.9486 38.5647 44.9311 38.5326V38.5341Z" fill="#FF9900"/>
<path d="M64.5511 87.7178C64.5452 87.6391 64.5263 87.5605 64.5031 87.4848C64.2659 86.6738 63.6184 85.9195 63.1383 85.2323C62.6058 84.4693 62.0631 83.7136 61.5175 82.9608C60.9355 82.157 60.3026 81.3751 59.7527 80.5481L52.7239 70.5158C50.8703 68.1089 47.8775 61.8885 46.5884 59.1293C46.5884 59.1293 46.5884 59.0332 46.6757 59.0885C47.9386 61.3294 49.4008 63.4713 51.1336 65.3758C52.2932 66.6499 53.5794 67.822 55.0125 68.783C56.1226 69.5271 57.3302 70.2158 58.6615 70.4517C59.1532 70.5391 59.7978 70.5944 60.2183 70.2478C61.1945 69.4441 59.9767 67.525 59.5344 66.7853C58.2177 64.5808 57.4277 63.0301 56.8893 61.8434C56.2695 60.3902 54.9528 56.7632 53.479 49.4319C53.3524 48.7752 53.2244 48.117 53.0949 47.4647C53.0716 47.3497 53.0483 47.2361 53.0236 47.1211V47.1138C53.0236 47.1138 51.5919 38.1954 43.6319 32.9477L43.6203 32.9404C42.2963 31.9736 40.7628 31.0548 39.0154 30.3049C38.1017 29.8972 37.2913 29.6206 36.606 29.4313C35.122 29.0236 34.2476 29.0382 34.2476 29.0382C33.8635 29.1575 35.3621 29.558 35.4566 29.5827C35.4595 29.5827 35.4624 29.5842 35.4654 29.5856C40.4151 31.1975 43.485 35.0124 43.485 35.0124C43.485 35.0124 43.5606 35.0969 43.6785 35.2425C44.371 36.1147 46.504 39.2801 43.0019 41.8952C38.6764 45.1248 36.0895 48.9747 36.5362 54.0389C36.9785 59.5515 44.598 70.3367 43.1925 74.4704C42.1479 77.5427 38.237 77.1642 37.3117 77.0928C36.4227 77.0142 35.5978 76.8366 34.8834 76.5803C31.5748 75.5232 26.2672 70.7487 26.2672 70.7487C26.2672 70.7487 22.5891 67.2614 19.0042 61.491C14.7994 54.5601 12.9749 45.3476 12.9749 45.3476C12.9472 45.2966 12.9225 45.285 12.9021 45.2937C12.8294 45.2704 12.8047 45.3913 12.8076 45.5776C12.8047 45.6024 12.8018 45.6199 12.8018 45.6199C12.8047 45.6388 12.8076 45.6592 12.8105 45.6781C12.8367 46.1674 12.9938 46.942 12.9938 46.942C13.1 47.686 14.2538 55.6973 18.4978 63.0927C22.6895 70.4007 28.681 75.0048 29.5016 75.6164C29.519 75.6309 29.583 75.6892 29.5103 75.7532C27.1155 77.7917 19.6298 78.9304 19.1409 78.9799C19.0755 78.9857 19.0129 78.9959 18.9518 79.0076C18.5982 79.0658 18.3887 79.1546 18.2665 79.2434C18.2563 79.2493 18.2505 79.2522 18.2505 79.2522C18.2505 79.2522 18.2389 79.2609 18.2214 79.2784C18.0817 79.3978 18.089 79.5041 18.089 79.5041C18.025 79.7531 18.1661 80.1549 19.3403 80.567C21.2477 81.2368 24.1445 81.2368 28.1819 80.6165C29.5598 80.4054 31.0307 80.2976 32.3692 80.2481C32.3722 80.2481 32.3736 80.2481 32.3765 80.2481C33.894 80.0894 42.6629 80.2802 45.3357 80.7956C47.8935 81.212 50.412 81.8775 52.8257 82.8225C54.5964 83.5155 56.3088 84.3557 57.9296 85.3502C59.0034 86.0083 60.0131 86.7553 61.0359 87.4921C61.3444 87.7134 61.6543 87.9362 61.9889 88.1153C62.6596 88.4735 63.5646 88.7181 64.2528 88.2623C64.3721 88.1837 64.4827 88.0789 64.5292 87.9435C64.554 87.8721 64.5583 87.7978 64.5525 87.7236L64.5511 87.7178Z" fill="#005CA1"/>
<path d="M27.8707 29.6656C17.5916 29.9685 9.89496 36.9256 9.89496 36.9256C9.89496 36.9256 8.79939 37.8167 8.32945 38.5156L8.32363 38.5243C8.24942 38.6365 8.18977 38.7427 8.15485 38.8403C7.29498 40.8293 10.2965 42.7338 10.2965 42.7338C10.7025 43.0149 11.2204 43.3119 11.881 43.5987C14.2394 44.6209 15.4848 45.4581 16.5993 46.1265C17.7138 46.7963 17.9742 45.959 17.9742 45.959C19.24 41.882 16.4713 37.5546 15.4426 36.1393C15.3161 35.9646 15.5168 35.7432 15.7045 35.8481C16.3345 36.199 16.9165 36.9561 17.1857 37.3405C17.2642 37.4527 17.4272 37.4527 17.5087 37.342C20.0228 33.9333 25.764 31.0605 27.9624 30.0471C28.1603 29.9554 28.089 29.6583 27.8707 29.6641V29.6656Z" fill="#005CA1"/>
<path d="M71.9159 26.3151L71.8504 26.2816L67.0767 24.4804C66.9196 24.4207 66.8381 24.2475 66.8949 24.0888C67.1219 23.4466 67.6631 21.9207 67.7591 21.6484C67.8828 21.3018 67.7591 21.066 67.7591 21.066C67.7009 20.9335 67.5831 20.8432 67.4507 20.782C67.2513 20.6903 65.4123 20.3801 64.5713 20.2418C64.3647 20.2083 64.2527 19.9841 64.3473 19.7977C64.89 18.7333 66.4118 15.7498 66.6446 15.3028C66.9298 14.7583 66.7436 14.5224 66.7436 14.5224C66.4715 14.1263 66.0379 14.237 66.0379 14.237L64.7998 14.5471L60.7027 15.5897C60.5077 15.6392 60.3171 15.4921 60.3156 15.2897L60.304 12.564V12.5421C60.3156 12.4751 60.3593 12.0966 60.1672 11.8709C59.9563 11.6233 59.4121 11.833 59.4121 11.833L57.1206 12.5232C56.9329 12.58 56.7394 12.4489 56.7219 12.2538L56.2171 6.62902C56.2171 6.62902 56.2171 6 55.6787 6C55.5129 6 55.3878 6.05387 55.3368 6.083C55.3179 6.09319 55.2626 6.12668 55.203 6.18346C55.0895 6.29267 54.9251 6.64795 54.8814 6.72367C52.7689 10.425 50.6563 14.1278 48.5437 17.8291C48.5146 17.8815 48.4535 17.9077 48.3953 17.8946C47.4903 17.6981 46.5504 17.5932 45.5858 17.5932C45.2803 17.5932 44.9777 17.6063 44.6765 17.6282C44.6503 17.6296 44.4481 17.0763 44.4262 17.0283C44.3026 16.7443 44.1702 16.4648 44.0334 16.1867C43.6682 15.4499 43.2594 14.735 42.804 14.0506C42.2569 13.2265 41.6429 12.446 40.9518 11.7384C40.2055 10.9739 39.3689 10.2954 38.4406 9.7654C37.8339 9.41885 37.1981 9.11745 36.5128 8.96747C35.8654 8.82478 35.2063 8.74178 34.5428 8.74906C33.5302 8.76071 32.5117 8.98494 31.6155 9.46545C31.2139 9.68094 30.8691 9.89207 30.5126 10.1906C30.3788 10.3012 30.2508 10.4468 30.226 10.6245C30.1984 10.8269 30.306 10.9171 30.4559 11.0176C30.5912 11.1079 30.7222 11.2054 30.8517 11.3059C31.1063 11.5025 31.3492 11.7136 31.5791 11.9379C32.0331 12.3776 32.4375 12.8668 32.7911 13.3896C33.1432 13.9094 33.4458 14.4641 33.7019 15.0364C33.9579 15.6101 34.1689 16.2041 34.3391 16.8099C34.5079 17.4112 34.6359 18.0228 34.7291 18.6401C34.8193 19.243 34.876 19.8501 34.8993 20.4588C34.9226 21.0674 34.9153 21.6178 34.8775 22.1959C34.8425 22.7273 34.7829 23.2573 34.6912 23.7815C34.6112 24.2431 34.5065 24.7003 34.3668 25.1488C34.2678 25.4662 34.1529 25.7778 34.0089 26.0763C33.8823 26.4825 33.4269 27.0213 33.8736 26.915C34.9968 26.2277 35.5016 24.4557 35.7068 23.4029C35.7504 23.1831 36.0472 23.1467 36.1462 23.3476C36.2524 23.5631 36.3528 23.7524 36.443 23.9169C36.9246 24.7891 37.8121 25.6045 37.9663 25.7021C38.1467 25.8273 38.33 25.8215 38.3751 25.7574C38.4173 25.6963 38.3679 25.5434 38.2195 25.4211L38.186 25.3876C36.4357 23.317 36.2131 21.1897 35.909 19.2837C35.5249 17.1899 35.1903 15.5358 34.182 13.7725C33.6146 12.7314 32.8289 11.6991 31.8192 11.0511C31.7814 11.0264 31.7421 11.0016 31.7188 10.9623C31.6184 10.7905 32.4535 10.6813 32.5379 10.6696C33.0079 10.6055 33.4662 10.6434 33.9288 10.7512C35.0797 11.0191 36.104 11.6918 36.9348 12.5188C37.5065 13.0881 37.9983 13.7405 38.3955 14.4437C38.6429 14.8806 38.8378 15.3349 39.0357 15.795C40.0876 18.2397 40.4659 20.6655 41.1905 22.4303C41.915 24.1965 42.7472 25.4414 42.7472 25.4414C45.2512 29.0103 47.8948 29.6058 47.8948 29.6058C47.8948 29.6058 49.3803 29.9028 48.471 28.3973C47.5602 26.8917 46.5024 24.2154 46.5024 24.2154C46.5024 24.2154 44.4844 19.3711 47.6009 19.9069C47.6766 19.9113 47.7522 19.92 47.8279 19.9317C47.8701 19.9404 47.9137 19.9462 47.9559 19.955C47.9632 19.9564 47.9719 19.9579 47.9792 19.9593C52.6627 20.9218 56.1851 25.0701 56.1851 30.0412C56.1851 33.8648 54.0987 37.1948 51.0069 38.9683C51.004 38.9698 50.9997 38.9727 50.9967 38.9742L50.6592 39.1372C50.5894 39.1707 50.5617 39.2537 50.5952 39.3236L51.4332 41.0214C51.4696 41.0942 51.5584 41.1204 51.6282 41.0796C51.8057 40.9733 52.1025 40.7957 52.1011 40.7957C55.5609 38.798 57.9732 35.2612 58.3369 31.1521C58.3427 31.0939 58.3835 31.0444 58.4402 31.0313L59.2143 30.8362C59.2143 30.8362 71.1506 27.6139 71.6962 27.4785C72.2403 27.3416 72.2403 26.9208 72.2403 26.9208C72.2913 26.6136 72.0134 26.3908 71.9144 26.3224L71.9159 26.3151ZM69.7276 26.7898L65.0471 28.042L61.7022 28.9098C61.5436 28.9506 61.3807 28.8618 61.3297 28.706C60.5557 26.3486 59.9577 25.4633 59.9577 25.4633C59.9577 25.4633 59.7468 25.0541 59.4252 25.2274C59.1037 25.4007 59.3627 25.9219 59.3627 25.9219C60.0814 27.6445 60.2385 29.3044 60.2385 29.3044L60.1803 29.3175L58.5522 29.7572C58.4664 29.7805 58.382 29.7165 58.3791 29.6276C58.1943 24.3814 54.685 19.9579 49.8386 18.2965C49.7571 18.2688 49.7193 18.1742 49.763 18.0985L51.7359 14.6214L54.6748 9.42904C54.8247 9.16404 55.2263 9.2514 55.2539 9.55427L55.9217 17.0996C55.9217 17.0996 55.9217 17.5699 56.1691 17.7811C56.4164 17.9922 56.9867 17.8189 56.9867 17.8189L64.4215 15.8503C64.679 15.7819 64.8972 16.0498 64.7779 16.2886L61.6134 22.6327L61.5945 22.6647C61.548 22.7332 61.3661 23.0287 61.4316 23.3432C61.5058 23.7029 61.8026 23.8019 61.8026 23.8019L69.8019 26.7519L69.7276 26.7898Z" fill="#005CA1"/>
<path d="M52.628 27.2849C52.8012 27.5383 52.9132 27.6446 52.9132 27.6446C53.1911 27.7931 53.1052 27.3723 53.1052 27.3723C52.3749 24.9683 50.53 24.0393 49.9291 23.7161C49.6672 23.5763 49.0823 23.4322 49.0038 23.8719C48.9703 24.0554 49.1027 24.2447 49.2555 24.3364C51.3855 25.328 52.4563 27.0316 52.6295 27.2864L52.628 27.2849Z" fill="#005CA1"/>
<path d="M36.046 9.86131C36.1973 9.87296 36.4258 9.95741 36.4738 9.97489C36.7313 10.0652 36.983 10.1715 37.2318 10.2879C37.5825 10.4525 37.9229 10.6403 38.2517 10.8471C38.6635 11.1048 39.0578 11.3931 39.4331 11.7062C39.8754 12.076 40.2916 12.4837 40.6757 12.9205C41.118 13.4243 41.5195 13.9689 41.8774 14.544C42.2877 15.2051 42.6398 15.9069 42.9366 16.632C43.0298 16.8592 43.1185 17.0878 43.1985 17.3193C43.1985 17.3193 43.3527 17.7692 43.1229 18.091C43.1141 18.1027 43.1039 18.1143 43.0923 18.1231C43.0239 18.1755 42.781 18.3225 42.4667 18.0328C42.458 18.0255 42.4507 18.0182 42.4449 18.0095C42.1073 17.5363 41.5384 13.168 36.0184 10.0448C35.9849 10.0258 35.9253 9.98654 35.9151 9.94577C35.8976 9.87296 35.9587 9.85403 36.046 9.86131Z" fill="white"/>
</svg>
