<svg width="200" height="95" viewBox="0 0 200 95" fill="none" xmlns="http://www.w3.org/2000/svg">
<path d="M22 49.2769H24.5266C25.8982 49.2769 26.9088 49.4218 27.4863 49.6393C28.0639 49.9293 28.5692 50.2918 28.9301 50.8717C29.2911 51.4517 29.4354 52.1041 29.4354 52.9016C29.4354 53.7715 29.2189 54.4965 28.7857 55.0764C28.3526 55.6564 27.7029 56.0914 26.9088 56.3088C26.4757 56.4538 25.6094 56.5263 24.3822 56.5263V61.8184H22V49.2769ZM24.3822 54.2065H25.1041C25.6816 54.2065 26.1148 54.134 26.3313 54.0615C26.5479 53.989 26.7645 53.844 26.9088 53.6265C27.0532 53.409 27.1254 53.1916 27.1254 52.9016C27.1254 52.3941 26.9088 52.0317 26.5479 51.8142C26.3313 51.6692 25.826 51.5967 25.0319 51.5967H24.3822V54.2065Z" fill="white"/>
<path d="M31.3848 49.2769H33.9114C35.283 49.2769 36.2936 49.4218 36.8711 49.6393C37.4486 49.8568 37.9539 50.2918 38.3149 50.8717C38.6758 51.4517 38.8202 52.1041 38.8202 52.9016C38.8202 53.699 38.6036 54.424 38.2427 55.0039C37.8818 55.5839 37.2321 55.9464 36.438 56.2363L39.3977 61.8184H36.7989L33.9836 56.5263H33.767V61.8184H31.3848V49.2769ZM33.767 54.2065H34.4889C35.283 54.2065 35.7883 54.134 36.077 53.9165C36.3658 53.699 36.5102 53.409 36.5102 52.9016C36.5102 52.6116 36.438 52.3941 36.2936 52.1766C36.1492 51.9592 35.9327 51.8142 35.7161 51.7417C35.4995 51.6692 35.0664 51.5967 34.4167 51.5967H33.767V54.2065Z" fill="white"/>
<path d="M45.6775 49.2769H48.0598L52.8964 61.8184H50.442L49.4314 59.2086H44.3781L43.3675 61.8184H40.9131L45.6775 49.2769ZM46.9048 52.6116L45.2444 56.9613H48.5651L46.9048 52.6116Z" fill="white"/>
<path d="M65.3856 51.3069L63.7253 52.9743C62.6424 51.8143 61.4152 51.3069 60.0436 51.3069C58.8164 51.3069 57.8058 51.7418 56.9395 52.5393C56.0733 53.3367 55.7123 54.3517 55.7123 55.5116C55.7123 56.744 56.1454 57.7589 57.0117 58.6288C57.878 59.4988 58.9608 59.8612 60.188 59.8612C60.9821 59.8612 61.704 59.7163 62.2815 59.3538C62.859 58.9913 63.2921 58.4838 63.6531 57.6864H60.0436V55.4391H66.3241V55.9465C66.3241 57.034 66.0353 58.1214 65.4578 59.0638C64.8803 60.0787 64.1584 60.8037 63.2199 61.3111C62.2815 61.8186 61.2708 62.1086 60.0436 62.1086C58.7442 62.1086 57.5892 61.8186 56.5786 61.2386C55.5679 60.6587 54.7739 59.8612 54.1963 58.8463C53.6188 57.8314 53.3301 56.6715 53.3301 55.4391C53.3301 53.7717 53.9076 52.3218 54.9904 51.0894C56.2898 49.6395 57.9502 48.9146 60.0436 48.9146C61.1265 48.9146 62.1371 49.132 63.0756 49.4945C63.8696 49.857 64.5915 50.5094 65.3856 51.3069Z" fill="white"/>
<path d="M69.5005 49.2769H71.8106L74.6981 58.0487L77.6579 49.2769H79.9679L82.0614 61.8184H79.7514L78.3798 53.844L75.7088 61.8184H73.6153L70.9443 53.844L69.5727 61.8184H67.2627L69.5005 49.2769Z" fill="white"/>
<path d="M88.4138 49.2769H90.796L95.6327 61.8184H93.1783L92.1676 59.2086H87.0422L86.0316 61.8184H83.5771L88.4138 49.2769ZM89.5688 52.6116L87.9085 56.9613H91.3013L89.5688 52.6116Z" fill="white"/>
<path d="M95.3438 49.2769H102.274V51.5967H99.9638V61.8184H97.5816V51.5967H95.3438V49.2769Z" fill="white"/>
<path d="M104.151 49.2769H106.534V61.8184H104.151V49.2769Z" fill="white"/>
<path d="M120.538 51.4519L118.878 53.0467C117.723 51.8143 116.495 51.2344 115.052 51.2344C113.824 51.2344 112.814 51.6693 112.02 52.4668C111.226 53.2642 110.792 54.2792 110.792 55.5116C110.792 56.3815 111.009 57.1064 111.37 57.7589C111.731 58.4114 112.236 58.9188 112.886 59.2813C113.536 59.6438 114.257 59.8612 115.124 59.8612C115.846 59.8612 116.423 59.7163 117.001 59.4988C117.578 59.2088 118.228 58.7738 118.878 58.0489L120.466 59.7163C119.527 60.6587 118.661 61.2386 117.867 61.6011C117.073 61.9636 116.134 62.1086 115.052 62.1086C113.102 62.1086 111.514 61.4561 110.287 60.2237C109.06 58.9913 108.41 57.3964 108.41 55.4391C108.41 54.2067 108.699 53.0467 109.276 52.1043C109.854 51.1619 110.648 50.3644 111.731 49.7845C112.814 49.2045 113.897 48.9146 115.124 48.9146C116.134 48.9146 117.145 49.132 118.083 49.567C119.022 50.002 119.816 50.6544 120.538 51.4519Z" fill="white"/>
<path d="M128.551 49.4946H131.005C132.377 49.4946 133.315 49.6396 133.893 49.8571C134.47 50.0746 134.976 50.5096 135.264 51.0895C135.625 51.6695 135.77 52.3219 135.77 53.1194C135.77 53.9893 135.553 54.7142 135.12 55.2942C134.687 55.8742 134.037 56.2366 133.315 56.4541C132.882 56.5991 132.016 56.6716 130.861 56.6716V61.8912H128.551V49.4946ZM130.861 54.3518H131.583C132.16 54.3518 132.593 54.2793 132.81 54.2068C133.026 54.1343 133.243 53.9893 133.315 53.7718C133.46 53.5543 133.532 53.3368 133.532 53.0469C133.532 52.5394 133.315 52.2494 132.954 52.0319C132.666 51.887 132.16 51.8145 131.438 51.8145H130.789V54.3518H130.861Z" fill="white"/>
<path d="M137.357 49.4946H139.667V59.5714H143.06V61.8187H137.357V49.4946Z" fill="white"/>
<path d="M149.197 49.4946H151.579L156.272 61.8187H153.817L152.879 59.2814H147.898L146.887 61.8187H144.433L149.197 49.4946ZM150.352 52.7569L148.692 56.9616H151.94L150.352 52.7569Z" fill="white"/>
<path d="M154.539 49.4946H157.066L159.376 53.9168L161.686 49.4946H164.14L160.531 56.4541V61.8187H158.148V56.4541L154.539 49.4946Z" fill="white"/>
<path d="M177.279 53.9166L176.845 51.1618L175.907 53.9166H175.185L174.247 51.1618L173.741 53.9166H172.947L173.669 49.5669H174.463L175.474 52.6117L176.485 49.5669H177.279L178 53.9166H177.279ZM171.864 53.9166H170.998V50.3643H170.204V49.5669H172.586V50.3643H171.792V53.9166H171.864Z" fill="white"/>
<path d="M149.125 37.5328C141.761 37.9678 145.082 47.6096 153.167 47.1021C161.108 46.5222 156.921 37.0253 149.125 37.5328Z" fill="#F19021"/>
<path d="M146.021 31.5884C132.955 31.5884 122.415 42.2451 122.415 55.2941C122.415 68.4157 133.027 78.9999 146.021 78.9999C159.087 78.9999 169.627 68.3432 169.627 55.2941C169.627 42.1726 159.087 31.5884 146.021 31.5884ZM146.021 76.5351C134.326 76.5351 124.869 67.0383 124.869 55.2941C124.869 43.55 134.326 34.0532 146.021 34.0532C157.715 34.0532 167.172 43.55 167.172 55.2941C167.172 67.0383 157.715 76.5351 146.021 76.5351Z" fill="#F19021"/>
<path d="M145.298 14.9872C139.667 19.2644 140.678 25.7889 140.678 25.7889C140.678 25.7889 137.141 16.5821 132.593 11C131.943 18.2495 134.253 27.8188 134.253 27.8188C134.253 27.8188 131.366 21.8742 124.363 21.5117C130.211 24.8465 132.448 30.936 132.954 32.5309C136.347 30.4286 140.245 29.1962 144.504 29.0512C143.999 27.6013 142.338 21.2217 145.298 14.9872Z" fill="#F19021"/>
</svg>
