<svg width="200" height="95" viewBox="0 0 200 95" fill="none" xmlns="http://www.w3.org/2000/svg">
<path d="M34 19H7V45H34V19Z" fill="#736C73"/>
<path d="M84 19L82.1792 32.5L84 46L71 44.1092L58 46L59.8175 32.5L58 19L71 20.8908L84 19Z" fill="#8E618E"/>
<path d="M124.706 19.0873L138 19.9718L132.094 32.2887L131.237 46L119.294 39.9092L106 39.0247L111.906 26.7113L112.763 13L124.706 19.0873Z" fill="#BC4DBC"/>
<path d="M192 29.4983C181.304 31.3852 172.933 39.5592 171 50C169.07 39.5592 160.696 31.3852 150 29.4983C160.696 27.6148 169.07 19.4408 171 9C172.933 19.4408 181.304 27.6148 192 29.4983Z" fill="#ED3AED"/>
<path d="M182.35 74.0196C180.028 74.0263 178.138 72.1951 178.131 69.9413C178.128 67.6875 180.011 65.8496 182.33 65.8429C184.652 65.8362 186.542 67.6674 186.549 69.9212C186.552 72.175 184.669 74.0129 182.347 74.0196M182.323 60.5539C176.998 60.5674 172.677 64.7831 172.69 69.9547C172.704 75.1263 177.042 79.3253 182.367 79.3119C187.693 79.3018 192.014 75.0827 192 69.9111C191.99 64.7395 187.648 60.5439 182.326 60.5539M169.006 55.2247L163.926 55.2348C163.766 55.2348 163.636 55.3622 163.636 55.5198L163.643 59.1755C163.643 59.3331 163.772 59.4606 163.936 59.4606L169.016 59.4505C169.176 59.4505 169.306 59.3231 169.306 59.1621L169.299 55.5098C169.299 55.3522 169.169 55.2247 169.009 55.2247M169.016 60.8658L163.936 60.8759C163.776 60.8759 163.646 61.0034 163.646 61.161L163.684 78.5003C163.684 78.6579 163.813 78.7854 163.977 78.7854L169.057 78.7753C169.217 78.7753 169.346 78.6478 169.346 78.4869L169.309 61.1476C169.309 60.9899 169.18 60.8625 169.02 60.8625M157.695 62.4723C157.569 62.3482 157.429 62.2309 157.286 62.1168C157.245 62.0833 153.251 59.0112 149.162 61.7949C149.066 61.8586 148.933 61.7915 148.933 61.6775L148.92 55.5534C148.92 55.3957 148.79 55.2683 148.63 55.2683L143.55 55.2784C143.39 55.2784 143.261 55.4058 143.261 55.5634L143.312 78.5439C143.312 78.7015 143.441 78.829 143.605 78.829L149.029 78.8189C149.189 78.8189 149.318 78.6881 149.318 78.5338L149.298 68.7373C149.298 68.0565 149.298 67.2113 149.587 66.5908C149.843 66.0207 150.653 65.6652 151.698 65.6618C152.26 65.6618 152.703 65.7859 153.04 66.0475C153.248 66.2085 153.421 66.4231 153.551 66.6847C153.833 67.2985 153.874 68.0632 153.877 68.7272L153.898 78.5238C153.898 78.6814 154.027 78.8088 154.187 78.8088L159.612 78.7988C159.772 78.7988 159.901 78.6713 159.901 78.5137L159.877 68.4354C159.87 65.796 159.557 64.3069 157.698 62.4757L157.695 62.4723ZM139.924 74.5394L135.916 72.2722C135.783 72.1984 135.616 72.2353 135.531 72.3594C134.687 73.6272 133.516 74.3281 132.109 74.3315C130.747 74.3315 129.525 73.7378 128.711 72.7954C128.023 72.0676 127.604 71.1017 127.601 70.0419C127.601 68.9788 128.016 68.0095 128.701 67.2817C129.511 66.3359 130.73 65.7323 132.092 65.7323C133.495 65.7323 134.673 66.4265 135.521 67.6909C135.606 67.815 135.773 67.8519 135.906 67.7781L137.394 66.9296L139.968 65.4572C140.077 65.3935 140.114 65.256 140.046 65.1487C139.886 64.8971 139.716 64.6523 139.536 64.4142C139.536 64.4142 139.529 64.4075 139.529 64.4041C139.348 64.1727 139.161 63.9514 138.96 63.7367C138.947 63.72 138.93 63.7065 138.916 63.6898C138.827 63.5992 138.739 63.5087 138.647 63.4181C138.63 63.4013 138.616 63.3846 138.599 63.3712C138.514 63.2873 138.426 63.2068 138.337 63.1297C138.286 63.0827 138.231 63.0391 138.18 62.9922C138.143 62.962 138.109 62.9318 138.071 62.8983C136.672 61.7446 134.952 60.9866 133.117 60.7418C133.056 60.735 132.995 60.725 132.933 60.7183C132.858 60.7116 132.783 60.7015 132.705 60.6948C132.586 60.6847 132.47 60.6747 132.351 60.668C132.31 60.668 132.266 60.6646 132.222 60.6613C132.079 60.6546 131.936 60.6512 131.789 60.6512C126.464 60.6613 122.143 64.8804 122.156 70.052C122.167 75.2236 126.508 79.4226 131.833 79.4092C131.976 79.4092 132.119 79.4025 132.262 79.3991C132.307 79.3991 132.348 79.3958 132.392 79.3924C132.511 79.3857 132.63 79.3756 132.746 79.3656C132.821 79.3589 132.896 79.3488 132.974 79.3387C133.035 79.332 133.097 79.3253 133.158 79.3153C134.993 79.0604 136.709 78.2957 138.102 77.1386C138.14 77.1084 138.177 77.0783 138.214 77.0447C138.266 76.9978 138.32 76.9542 138.371 76.9072C138.46 76.8267 138.548 76.7462 138.633 76.6624C138.647 76.649 138.664 76.6322 138.678 76.6188C138.759 76.5349 138.895 76.3974 138.977 76.3136C138.981 76.3102 138.987 76.3035 138.991 76.2968C139.192 76.0822 139.379 75.8575 139.559 75.626C139.559 75.6227 139.563 75.6193 139.566 75.616C139.679 75.4684 139.883 75.1599 140.029 74.9385C140.118 74.801 140.074 74.6165 139.931 74.5361L139.924 74.5394ZM119.65 74.583L115.643 72.3158C115.51 72.242 115.34 72.2789 115.258 72.403C114.413 73.6708 113.242 74.3717 111.836 74.3751C110.474 74.3751 109.251 73.7814 108.438 72.839C107.75 72.1112 107.331 71.1453 107.328 70.0855C107.328 69.0224 107.743 68.0531 108.427 67.3253C109.238 66.3795 110.457 65.7759 111.819 65.7759C113.222 65.7759 114.4 66.4701 115.248 67.7345C115.329 67.8586 115.5 67.8955 115.632 67.8217L117.12 66.9732L119.695 65.5008C119.804 65.4371 119.841 65.2996 119.773 65.1923C119.613 64.9407 119.443 64.6959 119.262 64.4578C119.262 64.4578 119.259 64.4511 119.255 64.4477C119.075 64.2163 118.888 63.995 118.687 63.7803C118.673 63.7636 118.656 63.7501 118.642 63.7334C118.554 63.6428 118.465 63.5523 118.373 63.4617C118.356 63.4449 118.343 63.4282 118.326 63.4148C118.241 63.3309 118.152 63.2504 118.064 63.1733C118.013 63.1263 117.958 63.0827 117.904 63.0358C117.866 63.0056 117.832 62.9754 117.795 62.9419C116.395 61.7881 114.676 61.0302 112.84 60.7854C112.779 60.7786 112.718 60.7719 112.656 60.7619C112.582 60.7552 112.507 60.7451 112.428 60.7384C112.309 60.7283 112.193 60.7183 112.074 60.7116C112.033 60.7116 111.989 60.7082 111.945 60.7049C111.802 60.6982 111.659 60.6948 111.516 60.6948C106.19 60.7049 101.869 64.924 101.883 70.0956C101.893 75.2672 106.235 79.4628 111.56 79.4528C111.703 79.4528 111.846 79.4461 111.989 79.4427C112.033 79.4427 112.074 79.4394 112.118 79.436C112.238 79.4293 112.357 79.4192 112.473 79.4092C112.547 79.4025 112.622 79.3924 112.701 79.3823C112.762 79.3756 112.823 79.3689 112.885 79.3589C114.72 79.1073 116.436 78.3393 117.829 77.1822C117.866 77.152 117.904 77.1185 117.941 77.0883C117.992 77.0414 118.047 76.9978 118.098 76.9508C118.186 76.8703 118.275 76.7898 118.36 76.706C118.373 76.6926 118.39 76.6758 118.404 76.6624C118.486 76.5785 118.622 76.441 118.704 76.3572C118.707 76.3538 118.714 76.3471 118.717 76.3404C118.918 76.1258 119.106 75.9011 119.286 75.6697C119.286 75.6697 119.289 75.6629 119.293 75.6596C119.409 75.512 119.609 75.2035 119.756 74.9821C119.844 74.8446 119.8 74.6601 119.657 74.5797L119.65 74.583ZM89.5569 74.2208C87.2346 74.2241 85.3449 72.3963 85.3381 70.1425C85.3347 67.8888 87.2176 66.0509 89.5364 66.0442C91.8587 66.0408 93.7484 67.8686 93.7552 70.1224C93.7586 72.3762 91.8757 74.2141 89.5569 74.2208ZM89.5262 60.7518C84.2008 60.7619 79.8798 64.981 79.8935 70.1526C79.9037 75.3242 84.245 79.5232 89.5671 79.5098C94.8891 79.4997 99.2135 75.2806 99.1998 70.1124C99.1896 64.9407 94.8483 60.7451 89.5228 60.7552M74.5714 62.6501C74.4454 62.526 74.3058 62.4053 74.1594 62.2946C74.1186 62.261 70.1245 59.1889 66.0351 61.9726C65.9397 62.0363 65.8103 61.9726 65.8103 61.8552V61.3723C65.8103 61.2146 65.6775 61.0872 65.5175 61.0872L60.4372 61.0973C60.2772 61.0973 60.1478 61.2247 60.1478 61.3823L60.1853 78.7216C60.1853 78.8793 60.3146 79.0067 60.4781 79.0067L65.9023 78.9966C66.0623 78.9966 66.1917 78.8692 66.1917 78.7082L66.1713 68.9117C66.1713 68.2309 66.1713 67.389 66.4607 66.7652C66.7161 66.1951 67.5265 65.8396 68.5718 65.8362C69.1336 65.8362 69.5729 65.9603 69.9134 66.2219C70.1211 66.3829 70.2947 66.5975 70.4241 66.8591C70.7067 67.4729 70.7476 68.2342 70.751 68.9016L70.7714 78.6982C70.7714 78.8558 70.9008 78.9832 71.0609 78.9832L76.485 78.9732C76.6451 78.9732 76.7745 78.8457 76.7745 78.6881L76.7506 68.6098C76.7438 65.9704 76.4272 64.4813 74.5714 62.6501ZM55.8337 55.4695L50.7534 55.4796C50.5933 55.4796 50.4639 55.607 50.4639 55.7647L50.4708 59.4203C50.4708 59.578 50.6002 59.7054 50.7602 59.7054L55.8405 59.6954C56.0005 59.6954 56.1299 59.5679 56.1299 59.4069L56.1231 55.7513C56.1231 55.5936 55.9937 55.4662 55.8337 55.4662M55.8439 61.1107L50.7636 61.1207C50.6036 61.1207 50.4742 61.2482 50.4742 61.4092L50.5116 78.7485C50.5116 78.9061 50.641 79.0335 50.801 79.0335L55.8813 79.0235C56.0414 79.0235 56.1707 78.896 56.1707 78.7384L56.1333 61.3991C56.1333 61.2415 56.0039 61.114 55.8439 61.114M36.6328 74.5461C34.1914 74.5528 32.4923 72.6244 32.4855 70.2532C32.4821 67.8821 34.171 65.9503 36.6124 65.9435C39.0538 65.9368 41.0457 67.8619 41.0491 70.2331C41.0559 72.6042 39.0708 74.5394 36.6294 74.5428M37.4738 60.8658C35.785 60.8692 34.1403 61.2985 32.6864 62.1135C32.5876 62.1671 32.4685 62.1001 32.4685 61.9894V61.4427C32.4685 61.2851 32.3357 61.1576 32.1756 61.1576L27.0954 61.1677C26.9353 61.1677 26.8059 61.2951 26.8059 61.4528L26.857 84.7149C26.857 84.8726 26.9864 85 27.1464 85L32.2267 84.9899C32.3868 84.9899 32.5161 84.8625 32.5161 84.7049L32.5025 78.517C32.5025 78.4064 32.6217 78.3393 32.7204 78.393C34.1778 79.2012 35.8258 79.6238 37.5147 79.6205C42.8367 79.6104 47.1611 75.3913 47.1475 70.2197C47.1373 65.0481 42.7959 60.8524 37.4738 60.8625M17.9665 65.1252C13.8329 63.2571 13.1961 62.9687 13.1961 61.9491C13.1961 60.8524 14.1904 60.1951 15.1574 60.1951C16.2027 60.1951 16.6794 60.6814 16.928 61.2482C16.9825 61.3756 17.1289 61.4394 17.2617 61.4058L22.3454 60.1448C22.4952 60.1079 22.5871 59.9637 22.5599 59.8161C22.1275 57.3108 19.9483 56.1135 18.9336 55.6808C17.4966 55.0939 16.087 55 15.3311 55C11.337 55.0101 7.10115 57.5858 7.11137 62.3415C7.12158 66.8088 11.2995 68.4992 12.8726 69.1364L13.1519 69.2538C16.4956 70.6624 17.3945 71.0414 17.3979 72.185C17.3979 73.2247 16.5671 74.3516 15.2187 74.3549C14.9191 74.3549 13.54 74.2644 13.0463 72.5908C13.0054 72.4466 12.8556 72.3561 12.7058 72.3862L7.23054 73.5165C7.0671 73.55 6.96836 73.711 7.00922 73.8686C7.48252 75.7636 8.4257 76.9307 9.06244 77.5344C10.5266 78.8759 12.6207 79.55 15.2936 79.5467C18.5079 79.54 20.8233 78.5472 22.1717 76.5987C23.3192 74.9419 23.4861 72.9564 23.4827 71.9201C23.4758 68.8111 21.93 66.9061 17.9665 65.1219V65.1252Z" fill="white"/>
</svg>
