<svg width="200" height="95" viewBox="0 0 200 95" fill="none" xmlns="http://www.w3.org/2000/svg">
<path d="M126.921 46.8891C130.226 48.7678 131.096 51.6756 130.419 55.0324C129.718 58.4997 127.297 60.7064 123.892 61C118.584 61.4558 113.228 61.4006 107.892 61.4213C107.44 61.4213 106.597 60.368 106.59 59.7982C106.504 52.2213 106.497 44.6444 106.566 37.0675C106.587 34.8296 107.875 33.5519 110.116 33.5277C114.257 33.4863 118.408 33.4345 122.535 33.7038C127.145 34.0043 129.794 36.7532 130.019 40.9077C130.157 43.4668 128.914 45.3213 126.921 46.8926V46.8891ZM113.359 49.797C113.625 50.8606 114.015 51.831 114.084 52.8256C114.302 56.0788 114.257 56.0823 117.552 56.0823C118.153 56.0823 118.754 56.1064 119.351 56.065C121.506 55.9199 122.77 54.7492 122.756 52.95C122.742 51.1507 121.44 49.8833 119.361 49.8108C117.341 49.7417 115.317 49.797 113.356 49.797H113.359ZM113.332 38.9255C113.618 39.8199 113.981 40.5693 114.081 41.3532C114.485 44.527 114.454 44.5339 117.621 44.4993C118.294 44.4924 118.971 44.4924 119.641 44.4234C121.357 44.2438 122.169 43.1836 122.135 41.5501C122.103 39.9891 121.212 39.0083 119.62 38.9462C117.538 38.8633 115.449 38.9255 113.328 38.9255H113.332Z" fill="white"/>
<path d="M140.189 39.4472C140.483 40.2173 141.004 40.908 140.946 41.5434C140.676 44.3891 142.265 44.7482 144.555 44.5859C146.426 44.4512 148.319 44.5928 150.201 44.5548C152.649 44.5065 152.149 46.2678 152.218 47.7113C152.294 49.2205 152.121 50.367 150.104 50.3049C146.803 50.2012 143.498 50.2772 140.262 50.2772C140.531 51.2235 140.994 52.073 140.959 52.9019C140.88 54.9774 141.747 55.6923 143.788 55.6094C146.872 55.485 149.966 55.6474 153.05 55.5507C154.666 55.4989 155.25 56.1377 155.091 57.6607C155.046 58.1062 155.036 58.5655 155.091 59.011C155.347 60.9588 154.573 61.6357 152.56 61.5942C147.065 61.4733 141.564 61.501 136.066 61.5804C134.322 61.6046 133.659 61.0486 133.676 59.2597C133.749 52.0592 133.683 44.8553 133.718 37.6514C133.731 34.7677 134.968 33.5176 137.841 33.4899C142.811 33.4416 147.784 33.5314 152.753 33.452C155.44 33.4071 154.725 35.2927 154.825 36.7362C154.929 38.273 154.856 39.5508 152.66 39.4886C148.526 39.3677 144.385 39.4541 140.186 39.4541L140.189 39.4472Z" fill="white"/>
<path d="M77.1445 33.5348C79.5378 33.5348 81.565 33.3622 83.53 33.6315C84.1896 33.7213 84.9632 34.8472 85.2222 35.6484C86.6968 40.2138 88.0264 44.8277 89.425 49.4208C89.6806 50.2565 90.0121 51.0715 90.4611 52.3182C92.2258 46.5578 93.9076 41.274 95.4375 35.9488C95.9555 34.1426 96.8085 33.2655 98.7667 33.4416C100.245 33.5763 101.74 33.4692 103.56 33.4692C103.332 34.5294 103.242 35.2443 103.028 35.9246C100.594 43.65 98.1036 51.3582 95.7207 59.1008C95.1923 60.8241 94.2702 61.5286 92.4744 61.4975C84.5522 61.3456 86.2479 62.4748 83.9168 55.3158C81.8481 48.9684 79.8866 42.5898 77.8836 36.2216C77.6626 35.5206 77.4933 34.8023 77.148 33.5452L77.1445 33.5348Z" fill="white"/>
<path d="M65.6287 39.9167C65.829 41.4914 66.1502 42.9212 66.1709 44.3544C66.2366 49.2341 66.1433 54.1138 66.2227 58.9936C66.2538 60.8136 65.6564 61.5595 63.7501 61.5181C57.5925 61.3765 58.5215 62.2191 58.4663 56.2515C58.4248 51.6722 58.4076 47.093 58.4801 42.5137C58.5112 40.5866 57.7928 39.7025 55.8175 39.9028C55.0715 39.9788 54.3048 39.9823 53.5589 39.9028C52.2328 39.7509 50.3437 40.6557 50.3057 38.0587C50.2677 35.327 51.2589 33.6797 53.5554 33.5347C56.1076 33.3724 58.6769 33.4552 61.2394 33.4483C64.8586 33.438 68.4744 33.507 72.0902 33.4207C73.7858 33.3793 74.3073 34.07 74.3349 35.6758C74.4109 39.9167 74.4627 39.9167 70.2667 39.9167C68.6298 39.9167 66.9894 39.9167 65.6287 39.9167Z" fill="white"/>
<path d="M173.169 39.9164C173.428 41.2564 173.805 42.32 173.815 43.3872C173.877 48.5604 173.784 53.7337 173.874 58.907C173.908 60.8444 173.259 61.5731 171.263 61.5213C165.403 61.3659 166.128 62.2154 166.09 56.3515C166.062 51.7031 166.045 47.0547 166.104 42.4064C166.128 40.6037 165.478 39.723 163.589 39.8992C162.768 39.9751 161.928 39.9751 161.11 39.8992C159.839 39.7783 158.074 40.5899 157.943 38.1932C157.798 35.5202 158.834 33.8245 161.058 33.5379C162.022 33.4136 163.009 33.4516 163.987 33.4516C168.051 33.4446 172.116 33.5068 176.177 33.4205C177.956 33.3825 178.691 34.049 178.491 35.7965C178.439 36.242 178.432 36.7013 178.491 37.1433C178.788 39.2983 177.904 40.21 175.708 39.9372C174.82 39.8266 173.908 39.9199 173.162 39.9199L173.169 39.9164Z" fill="white"/>
<path d="M36.9154 31.887L36.663 31.7738C36.1717 31.5536 35.5949 31.7732 35.3746 32.2645L33.1387 37.2513C32.9184 37.7425 33.1381 38.3194 33.6294 38.5396L33.8818 38.6528C34.3731 38.8731 34.9499 38.6534 35.1701 38.1621L37.4061 33.1754C37.6263 32.6841 37.4066 32.1073 36.9154 31.887Z" fill="#F9A11E"/>
<path d="M43.6262 36.0859L43.1162 35.8572C42.6961 35.6688 42.2028 35.8567 42.0144 36.2768L40.5546 39.5327C40.3662 39.9528 40.5541 40.4461 40.9742 40.6345L41.4842 40.8631C41.9044 41.0515 42.3977 40.8636 42.586 40.4435L44.0458 37.1877C44.2342 36.7675 44.0463 36.2742 43.6262 36.0859Z" fill="#F9A11E"/>
<path d="M40.9303 42.7291L40.1558 42.3819C39.8087 42.2263 39.4012 42.3815 39.2455 42.7286L38.4256 44.5574C38.2699 44.9045 38.4251 45.3121 38.7723 45.4677L39.5467 45.815C39.8938 45.9706 40.3014 45.8154 40.457 45.4683L41.277 43.6394C41.4326 43.2923 41.2774 42.8848 40.9303 42.7291Z" fill="#F9A11E"/>
<path d="M32.4616 42.7291L31.6871 42.3819C31.34 42.2263 30.9324 42.3815 30.7768 42.7286L29.9568 44.5574C29.8012 44.9045 29.9564 45.3121 30.3035 45.4677L31.078 45.815C31.4251 45.9706 31.8326 45.8154 31.9883 45.4683L32.8083 43.6394C32.9639 43.2923 32.8087 42.8848 32.4616 42.7291Z" fill="#F9A11E"/>
<path d="M41.771 31.6645L40.8386 31.2464C40.5351 31.1103 40.1788 31.246 40.0427 31.5495L39.6369 32.4545C39.5008 32.758 39.6366 33.1143 39.94 33.2504L40.8725 33.6684C41.176 33.8045 41.5323 33.6688 41.6684 33.3653L42.0741 32.4603C42.2102 32.1569 42.0745 31.8005 41.771 31.6645Z" fill="#F9A11E"/>
<path d="M40.1694 36.6901C40.4211 36.1287 40.1704 35.4696 39.6095 35.2181C39.0485 34.9666 38.3897 35.2178 38.1379 35.7793L35.0158 42.7426C34.7641 43.304 35.0148 43.963 35.5757 44.2146C36.1367 44.4661 36.7955 44.2148 37.0473 43.6534L40.1694 36.6901Z" fill="#F9A11E"/>
<path d="M11.6328 40.5661C15.0203 40.504 18.4077 40.44 21.7952 40.3779C23.615 44.1418 25.4329 47.9056 27.2527 51.6694C25.6211 55.6836 23.7502 59.5886 22.1186 63.6027L11.6328 40.5661Z" fill="#FCB912"/>
<path d="M29.0412 47.0589C26.7208 52.5786 24.3985 58.1001 22.0781 63.6198C25.4035 63.6819 28.7269 63.7459 32.0523 63.808L38.8272 48.5645C38.3887 48.4007 37.8749 48.1203 37.698 47.6235C37.3762 46.7239 38.4489 45.9373 38.0744 45.177C37.8185 44.6576 36.998 44.381 36.5689 44.6124C36.3167 44.7479 36.232 45.0415 36.1925 45.177C36.1925 45.177 35.6373 47.0815 34.3106 49.8818C34.049 50.4332 33.8175 50.8322 33.3696 51.0109C32.9405 51.1822 32.3233 51.1464 32.0523 50.8228C31.7229 50.4294 31.9996 49.7294 32.8051 47.9999C33.5635 46.372 34.2522 44.7103 35.0634 43.1069C35.7559 41.7369 36.1417 41.0387 35.8161 40.4722C35.5696 40.0413 34.9617 39.774 34.4988 39.9076C34.0283 40.045 33.8872 40.5437 33.3696 41.9777C32.8822 43.3252 32.2329 44.6087 31.6759 45.9298C31.3955 46.5941 31.2035 47.0326 30.7349 47.2471C30.097 47.5407 29.3687 47.2264 29.0412 47.0589Z" fill="#FECF08"/>
<path d="M181.309 34.489C181.309 33.945 181.75 33.5039 182.294 33.5039H186.713C187.257 33.5039 187.698 33.945 187.698 34.489V38.9083C187.698 39.4524 187.257 39.8934 186.713 39.8934H182.294C181.75 39.8934 181.309 39.4524 181.309 38.9083V34.489Z" fill="#FECF08"/>
</svg>
