<svg width="200" height="95" viewBox="0 0 200 95" fill="none" xmlns="http://www.w3.org/2000/svg">
<rect x="50" y="41.4866" width="100" height="48.6486" fill="white"/>
<path d="M77.4678 68.2471C77.4678 67.7403 77.2883 67.3497 76.9294 67.0752C76.5757 66.8007 75.9343 66.5236 75.0053 66.2438C74.0762 65.9641 73.3372 65.6526 72.7882 65.3095C71.7377 64.6497 71.2125 63.7892 71.2125 62.7282C71.2125 61.7991 71.5899 61.0337 72.3448 60.432C73.1049 59.8302 74.0894 59.5293 75.2982 59.5293C76.1006 59.5293 76.8159 59.6771 77.444 59.9727C78.0722 60.2683 78.5658 60.6906 78.9247 61.2396C79.2837 61.7833 79.4631 62.3877 79.4631 63.0528H77.4678C77.4678 62.4511 77.2778 61.9813 76.8977 61.6434C76.5229 61.3003 75.9845 61.1287 75.2824 61.1287C74.6278 61.1287 74.1184 61.2686 73.7542 61.5484C73.3953 61.8282 73.2158 62.2188 73.2158 62.7203C73.2158 63.1426 73.4111 63.4963 73.8017 63.7813C74.1923 64.0611 74.8364 64.3356 75.7337 64.6048C76.6311 64.8687 77.3517 65.1722 77.8954 65.5154C78.4391 65.8532 78.8376 66.2438 79.091 66.6872C79.3444 67.1254 79.4711 67.64 79.4711 68.2313C79.4711 69.192 79.1016 69.9574 78.3625 70.5275C77.6288 71.0923 76.6311 71.3747 75.3695 71.3747C74.5355 71.3747 73.7674 71.2217 73.0653 70.9155C72.3686 70.604 71.8248 70.1765 71.4342 69.6328C71.0489 69.0891 70.8562 68.4556 70.8562 67.7324H72.8595C72.8595 68.387 73.0759 68.8937 73.5088 69.2527C73.9416 69.6116 74.5619 69.7911 75.3695 69.7911C76.0663 69.7911 76.5889 69.6512 76.9373 69.3715C77.291 69.0864 77.4678 68.7116 77.4678 68.2471Z" fill="#232A64"/>
<path d="M87.9672 66.0696H83.2322V69.6169H88.7669V71.2164H81.2289V59.6877H88.7115V61.3029H83.2322V64.486H87.9672V66.0696Z" fill="#232A64"/>
<path d="M99.195 67.4632C99.0789 68.6931 98.6249 69.6539 97.8331 70.3454C97.0413 71.0316 95.9882 71.3747 94.6738 71.3747C93.7553 71.3747 92.945 71.1583 92.2429 70.7255C91.5461 70.2873 91.0077 69.6671 90.6276 68.8647C90.2476 68.0623 90.0496 67.1306 90.0338 66.0696V64.9928C90.0338 63.9054 90.2264 62.9473 90.6118 62.1185C90.9971 61.2897 91.5488 60.651 92.2667 60.2023C92.9899 59.7536 93.8239 59.5293 94.7688 59.5293C96.041 59.5293 97.065 59.8751 97.841 60.5666C98.617 61.2581 99.0683 62.2346 99.195 63.4963H97.1996C97.1046 62.6675 96.8618 62.071 96.4712 61.7068C96.0858 61.3373 95.5184 61.1525 94.7688 61.1525C93.8978 61.1525 93.2274 61.4719 92.7576 62.1106C92.2931 62.744 92.0555 63.6757 92.045 64.9057V65.9271C92.045 67.1729 92.2667 68.123 92.7101 68.7776C93.1588 69.4322 93.8133 69.7594 94.6738 69.7594C95.4603 69.7594 96.0515 69.5826 96.4474 69.2289C96.8433 68.8753 97.0941 68.2867 97.1996 67.4632H99.195Z" fill="#232A64"/>
<path d="M109.425 59.6877V67.3919C109.425 68.6166 109.032 69.5879 108.245 70.3058C107.464 71.0184 106.422 71.3747 105.118 71.3747C103.798 71.3747 102.75 71.0237 101.974 70.3216C101.198 69.6143 100.81 68.6351 100.81 67.384V59.6877H102.806V67.3999C102.806 68.1706 103.001 68.7591 103.392 69.1656C103.782 69.5721 104.358 69.7753 105.118 69.7753C106.659 69.7753 107.43 68.9624 107.43 67.3365V59.6877H109.425Z" fill="#232A64"/>
<path d="M115.807 66.7743H113.574V71.2164H111.571V59.6877H115.625C116.955 59.6877 117.982 59.9859 118.705 60.5824C119.428 61.1789 119.79 62.042 119.79 63.1716C119.79 63.9423 119.603 64.5889 119.228 65.1115C118.858 65.6289 118.341 66.0274 117.676 66.3072L120.265 71.1134V71.2164H118.119L115.807 66.7743ZM113.574 65.167H115.633C116.309 65.167 116.836 64.998 117.217 64.6602C117.597 64.3171 117.787 63.8499 117.787 63.2587C117.787 62.6411 117.61 62.1634 117.256 61.8255C116.908 61.4877 116.385 61.3135 115.688 61.3029H113.574V65.167Z" fill="#232A64"/>
<path d="M128.429 66.0696H123.694V69.6169H129.228V71.2164H121.69V59.6877H129.173V61.3029H123.694V64.486H128.429V66.0696Z" fill="#232A64"/>
<path d="M99.9182 12.3704C99.8424 15.5751 102.948 17.3554 105.296 18.4236C107.644 19.4919 108.478 20.204 108.478 21.201C108.478 22.6965 106.584 23.3374 104.842 23.4087C101.736 23.4799 99.9939 22.6253 98.5547 21.9844L97.4185 26.8269C98.8577 27.4679 101.509 27.9664 104.236 28.0376C110.674 28.0376 114.84 25.0466 114.916 20.4176C114.916 14.578 106.281 14.222 106.357 11.587C106.357 10.8037 107.19 9.9491 108.932 9.73545C109.841 9.59303 112.189 9.52181 114.992 10.7325L116.052 6.0323C114.613 5.5338 112.719 5.0353 110.295 5.0353C104.236 5.0353 99.9939 8.02631 99.9182 12.3704ZM126.354 5.39137C125.218 5.39137 124.157 6.0323 123.778 7.02931L114.613 27.6103H121.052L122.339 24.2632H130.217L130.974 27.6103H136.655L131.732 5.39137H126.354V5.39137ZM127.263 11.4446L129.081 19.7767H124.006L127.263 11.4446ZM92.192 5.39137L87.1169 27.6103H93.2524L98.3275 5.39137H92.192ZM83.1023 5.39137L76.7396 20.4889L74.1642 7.59902C73.8612 6.17473 72.6493 5.32015 71.3616 5.32015H60.9843L60.8328 5.96109C62.9537 6.38837 65.3776 7.10052 66.8925 7.88388C67.8015 8.31116 68.0287 8.73846 68.3317 9.80667L73.1795 27.5391H79.618L89.5408 5.32015L83.1023 5.39137Z" fill="white"/>
</svg>
